<?xml version="1.0" encoding="utf-8"?>
<!-- Generator: Adobe Illustrator 19.2.1, SVG Export Plug-In . SVG Version: 6.00 Build 0)  -->
<svg version="1.1" id="图层_1" xmlns="http://www.w3.org/2000/svg" xmlns:xlink="http://www.w3.org/1999/xlink" x="0px" y="0px"
	 viewBox="0 0 500 500" style="enable-background:new 0 0 500 500;" xml:space="preserve">
<style type="text/css">
	.st0{fill:url(#SVGID_1_);}
	.st1{fill:url(#SVGID_2_);}
	.st2{fill:url(#SVGID_3_);}
	.st3{fill:url(#SVGID_4_);}
	.st4{fill:url(#SVGID_5_);}
	.st5{fill:url(#SVGID_6_);}
	.st6{fill:url(#SVGID_7_);}
	.st7{fill:url(#SVGID_8_);}
	.st8{fill:url(#SVGID_9_);}
	.st9{fill:url(#SVGID_10_);}
	.st10{fill:url(#SVGID_11_);}
	.st11{fill:url(#SVGID_12_);}
	.st12{fill:url(#SVGID_13_);}
	.st13{fill:url(#SVGID_14_);}
	.st14{fill:url(#SVGID_15_);}
	.st15{fill:url(#SVGID_16_);}
	.st16{fill:url(#SVGID_17_);}
	.st17{fill:url(#SVGID_18_);}
	.st18{fill:url(#SVGID_19_);}
	.st19{fill:url(#SVGID_20_);}
	.st20{opacity:0.5;}
	.st21{opacity:0.2;fill:#FFFFFF;}
	.st22{fill:url(#SVGID_21_);}
	.st23{fill:url(#SVGID_22_);}
	.st24{fill:url(#SVGID_23_);}
	.st25{fill:url(#SVGID_24_);}
	.st26{fill:url(#SVGID_25_);}
	.st27{fill:url(#SVGID_26_);}
	.st28{fill:url(#SVGID_27_);}
	.st29{fill:url(#SVGID_28_);}
	.st30{fill:url(#SVGID_29_);}
	.st31{fill:url(#SVGID_30_);}
	.st32{opacity:0.2;}
	.st33{opacity:0.42;fill:#2E318F;}
	.st34{fill:url(#SVGID_31_);}
	.st35{opacity:0.45;fill:#00ABEC;}
	.st36{fill:url(#SVGID_32_);}
</style>
<g>
	
		<linearGradient id="SVGID_1_" gradientUnits="userSpaceOnUse" x1="-1356.9877" y1="450.502" x2="-1442.125" y2="253.1377" gradientTransform="matrix(-1 0 0 1 -1097.4473 0)">
		<stop  offset="0.2528" style="stop-color:#D68F20"/>
		<stop  offset="0.4142" style="stop-color:#D28820"/>
		<stop  offset="0.6544" style="stop-color:#C67421"/>
		<stop  offset="0.9424" style="stop-color:#B45323"/>
		<stop  offset="0.9551" style="stop-color:#B35123"/>
	</linearGradient>
	<path class="st0" d="M283.1,342.2c0,0-14.5,89.4-14.8,96.9c0,0-0.1,2.8-1.2,4l61.4-98.8l44.3-126.6L283.1,342.2z"/>
	
		<linearGradient id="SVGID_2_" gradientUnits="userSpaceOnUse" x1="-1270.8893" y1="428.4192" x2="-1286.5184" y2="291.3631" gradientTransform="matrix(-1 0 0 1 -1097.4473 0)">
		<stop  offset="5.618000e-003" style="stop-color:#E3BA43"/>
		<stop  offset="0.1937" style="stop-color:#E1B340"/>
		<stop  offset="0.4735" style="stop-color:#DA9F38"/>
		<stop  offset="0.809" style="stop-color:#CF7E2A"/>
		<stop  offset="0.9551" style="stop-color:#CA6D23"/>
	</linearGradient>
	<path class="st1" d="M283.1,342.2l-14.5,98.1c0,0-0.2,4.8-4.3,2.4L122.8,336.9c0,0-1.4-0.7-2.1-3.3L96.1,230.5L283.1,342.2z"/>
	
		<linearGradient id="SVGID_3_" gradientUnits="userSpaceOnUse" x1="-1287.7952" y1="265.9732" x2="-1459.3236" y2="343.2671" gradientTransform="matrix(-1 0 0 1 -1097.4473 0)">
		<stop  offset="5.618000e-003" style="stop-color:#C58626"/>
		<stop  offset="0.2341" style="stop-color:#BE7F26"/>
		<stop  offset="0.574" style="stop-color:#AA6D25"/>
		<stop  offset="0.9551" style="stop-color:#8B5123"/>
	</linearGradient>
	<polygon class="st2" points="321.4,290.7 283.1,342.2 210.7,301.4 248.4,257.7 	"/>
	
		<linearGradient id="SVGID_4_" gradientUnits="userSpaceOnUse" x1="-1259.438" y1="192.9814" x2="-1457.9694" y2="260.2261" gradientTransform="matrix(-1 0 0 1 -1097.4473 0)">
		<stop  offset="5.618000e-003" style="stop-color:#E6B83A"/>
		<stop  offset="0.1538" style="stop-color:#DFB138"/>
		<stop  offset="0.3742" style="stop-color:#CD9C34"/>
		<stop  offset="0.6398" style="stop-color:#AE7B2D"/>
		<stop  offset="0.9382" style="stop-color:#844E24"/>
		<stop  offset="0.9551" style="stop-color:#814B23"/>
	</linearGradient>
	<polygon class="st3" points="315.5,302.7 203.4,244.7 197.2,147.2 372.7,217.7 	"/>
	
		<linearGradient id="SVGID_5_" gradientUnits="userSpaceOnUse" x1="-1337.2521" y1="294.7443" x2="-1261.635" y2="236.7364" gradientTransform="matrix(-1 0 0 1 -1097.4473 0)">
		<stop  offset="0" style="stop-color:#C59533"/>
		<stop  offset="0.2413" style="stop-color:#C38E30"/>
		<stop  offset="0.5995" style="stop-color:#BC7A28"/>
		<stop  offset="0.9551" style="stop-color:#B45F1D"/>
	</linearGradient>
	<polygon class="st4" points="203.4,244.7 247.3,266.3 214.3,302 170.2,275.6 	"/>
	
		<linearGradient id="SVGID_6_" gradientUnits="userSpaceOnUse" x1="-1227.2552" y1="164.2464" x2="-1297.9791" y2="270.3321" gradientTransform="matrix(-1 0 0 1 -1097.4473 0)">
		<stop  offset="5.618000e-003" style="stop-color:#E8BE44"/>
		<stop  offset="0.1516" style="stop-color:#E4B741"/>
		<stop  offset="0.3689" style="stop-color:#D9A238"/>
		<stop  offset="0.6293" style="stop-color:#C68229"/>
		<stop  offset="0.7753" style="stop-color:#BA6C1F"/>
	</linearGradient>
	<path class="st5" d="M197.2,147.2l6.3,97.5l-33.2,32l-75.2-46.5C95.1,230.2,194.2,147.9,197.2,147.2z"/>
	
		<linearGradient id="SVGID_7_" gradientUnits="userSpaceOnUse" x1="-1284.8169" y1="197.9301" x2="-1319.749" y2="200.9244" gradientTransform="matrix(-1 0 0 1 -1097.4473 0)">
		<stop  offset="1.685400e-002" style="stop-color:#E3B83F"/>
		<stop  offset="0.1753" style="stop-color:#DEB13D"/>
		<stop  offset="0.411" style="stop-color:#D09C37"/>
		<stop  offset="0.6935" style="stop-color:#B97C2E"/>
		<stop  offset="0.9607" style="stop-color:#9F5623"/>
	</linearGradient>
	<path class="st6" d="M197.4,146.5c0,0-8.2,8-9.4,9.6l9.2,94.9l6.5-6.1L197.4,146.5z"/>
	
		<linearGradient id="SVGID_8_" gradientUnits="userSpaceOnUse" x1="-1381.7701" y1="206.9295" x2="-1411.1628" y2="104.5994" gradientTransform="matrix(-1 0 0 1 -1097.4473 0)">
		<stop  offset="5.618000e-003" style="stop-color:#EFE279"/>
		<stop  offset="0.2394" style="stop-color:#ECDB74"/>
		<stop  offset="0.5871" style="stop-color:#E4C766"/>
		<stop  offset="1" style="stop-color:#D6A64F"/>
	</linearGradient>
	<path class="st7" d="M372.7,217.7c0,0-173.4-67.2-175.6-70.5c0,0,1.9-0.2,3.1-3l25.4-62.6c0,0,0.4-2,2.3-1.8l181.2,53.4
		c0,0,0.7,0.8-0.2,2.5c0,0-32.2,73.9-35.6,77.4C373.4,213.2,371.7,216.1,372.7,217.7z"/>
	
		<linearGradient id="SVGID_9_" gradientUnits="userSpaceOnUse" x1="-1258.791" y1="248.0706" x2="-1173.7843" y2="57.9861" gradientTransform="matrix(-1 0 0 1 -1097.4473 0)">
		<stop  offset="5.618000e-003" style="stop-color:#FAED8D"/>
		<stop  offset="0.1596" style="stop-color:#F9E886"/>
		<stop  offset="0.3889" style="stop-color:#F6D971"/>
		<stop  offset="0.6649" style="stop-color:#F1C250"/>
		<stop  offset="0.9551" style="stop-color:#EAA426"/>
	</linearGradient>
	<path class="st8" d="M197.9,147.5c0,0-101.4,81.9-102.9,82.7c0,0,0-1.1-1.4-3.2l-47.4-54.7c0,0-1.9-0.6,0.7-1.9l107.7-76
		c0,0,1.2-2.4,1.9-0.2C156.6,94.1,198,146,197.9,147.5z"/>
	
		<linearGradient id="SVGID_10_" gradientUnits="userSpaceOnUse" x1="-1540.4519" y1="301.483" x2="-1426.3352" y2="265.3701" gradientTransform="matrix(-1 0 0 1 -1097.4473 0)">
		<stop  offset="5.618000e-003" style="stop-color:#F2D995"/>
		<stop  offset="0.1598" style="stop-color:#F2D68E"/>
		<stop  offset="0.3893" style="stop-color:#F0CF79"/>
		<stop  offset="0.6656" style="stop-color:#EEC358"/>
		<stop  offset="0.9763" style="stop-color:#EBB22B"/>
		<stop  offset="1" style="stop-color:#EBB127"/>
	</linearGradient>
	<path class="st9" d="M447.7,215l-82,138.8c0,0-1.1,1.7-3.4,1.2l-78.4-14.1l88.8-123.2l73.7-4.8C446.4,212.8,448.8,213.2,447.7,215z
		"/>
	<g>
		<g>
			
				<radialGradient id="SVGID_11_" cx="-552.8106" cy="-390.2516" r="110.137" gradientTransform="matrix(0.869 -0.4949 0.4949 0.869 848.5628 346.9626)" gradientUnits="userSpaceOnUse">
				<stop  offset="8.791210e-002" style="stop-color:#128AFF"/>
				<stop  offset="0.5714" style="stop-color:#2161BD"/>
				<stop  offset="0.6399" style="stop-color:#1D5CBB"/>
				<stop  offset="0.7227" style="stop-color:#114DB7"/>
				<stop  offset="0.8022" style="stop-color:#0038B1"/>
				<stop  offset="0.8331" style="stop-color:#0034A7"/>
				<stop  offset="0.8846" style="stop-color:#00278E"/>
				<stop  offset="0.9501" style="stop-color:#001464"/>
				<stop  offset="1" style="stop-color:#000340"/>
			</radialGradient>
			<polygon class="st10" points="265.5,310.2 250.3,309.3 239.5,290.3 253.6,289.4 			"/>
		</g>
		<g>
			
				<linearGradient id="SVGID_12_" gradientUnits="userSpaceOnUse" x1="-518.7824" y1="-320.8537" x2="-464.4377" y2="-354.1618" gradientTransform="matrix(0.869 -0.4949 0.4949 0.869 848.5628 346.9626)">
				<stop  offset="0" style="stop-color:#FFFFFF"/>
				<stop  offset="1" style="stop-color:#000000"/>
			</linearGradient>
			<polygon class="st11" points="265.5,310.2 250.3,309.3 239.5,290.3 253.6,289.4 			"/>
		</g>
		<g>
			
				<radialGradient id="SVGID_13_" cx="-487.8833" cy="-343.8923" r="99.1996" gradientTransform="matrix(0.869 -0.4949 0.4949 0.869 848.5628 346.9626)" gradientUnits="userSpaceOnUse">
				<stop  offset="8.791210e-002" style="stop-color:#128AFF"/>
				<stop  offset="0.5714" style="stop-color:#2161BD"/>
				<stop  offset="0.6399" style="stop-color:#1D5CBB"/>
				<stop  offset="0.7227" style="stop-color:#114DB7"/>
				<stop  offset="0.8022" style="stop-color:#0038B1"/>
				<stop  offset="0.8331" style="stop-color:#0034A7"/>
				<stop  offset="0.8846" style="stop-color:#00278E"/>
				<stop  offset="0.9501" style="stop-color:#001464"/>
				<stop  offset="1" style="stop-color:#000340"/>
			</radialGradient>
			<polygon class="st12" points="253.6,289.4 239.5,290.3 254.1,279.2 270,276 			"/>
		</g>
		<g>
			
				<radialGradient id="SVGID_14_" cx="-425.71" cy="-282.7317" r="119.8245" gradientTransform="matrix(0.869 -0.4949 0.4949 0.869 848.5628 346.9626)" gradientUnits="userSpaceOnUse">
				<stop  offset="8.791210e-002" style="stop-color:#128AFF"/>
				<stop  offset="0.5714" style="stop-color:#2161BD"/>
				<stop  offset="0.6399" style="stop-color:#1D5CBB"/>
				<stop  offset="0.7227" style="stop-color:#114DB7"/>
				<stop  offset="0.8022" style="stop-color:#0038B1"/>
				<stop  offset="0.8331" style="stop-color:#0034A7"/>
				<stop  offset="0.8846" style="stop-color:#00278E"/>
				<stop  offset="0.9501" style="stop-color:#001464"/>
				<stop  offset="1" style="stop-color:#000340"/>
			</radialGradient>
			<polygon class="st13" points="270,276 280.7,295 265.5,310.2 253.6,289.4 			"/>
		</g>
	</g>
	<g>
		
			<linearGradient id="SVGID_15_" gradientUnits="userSpaceOnUse" x1="174.2587" y1="219.6737" x2="317.1625" y2="219.6737" gradientTransform="matrix(0.9877 0.1561 -0.1561 0.9877 29.3064 -38.4384)">
			<stop  offset="5.617999e-003" style="stop-color:#7FCEFF"/>
			<stop  offset="0.1297" style="stop-color:#78C7FC"/>
			<stop  offset="0.3145" style="stop-color:#66B2F3"/>
			<stop  offset="0.5372" style="stop-color:#4891E3"/>
			<stop  offset="0.7871" style="stop-color:#1F64CF"/>
			<stop  offset="0.9551" style="stop-color:#0041BF"/>
		</linearGradient>
		<path class="st14" d="M303,261.2l-36.5,7.4l-17.1-29.7L193.7,250l-4.2,34l-35.9,7.2l25-157.1l39.9-8L303,261.2z M238.4,214.8
			L209.6,168c-2.2-4.2-4.2-8.1-5.9-11.9l-0.7,0.1c0.5,5,0.3,9.6-0.6,14l-6.6,53.2L238.4,214.8z"/>
	</g>
	<g>
		
			<linearGradient id="SVGID_16_" gradientUnits="userSpaceOnUse" x1="161.0174" y1="207.6495" x2="312.2434" y2="207.6495" gradientTransform="matrix(0.9974 -7.246099e-002 7.246099e-002 0.9974 -10.3881 12.2942)">
			<stop  offset="0" style="stop-color:#BFF8FF"/>
			<stop  offset="0.339" style="stop-color:#55C8FF"/>
			<stop  offset="0.4219" style="stop-color:#50C1FC"/>
			<stop  offset="0.5455" style="stop-color:#44ACF2"/>
			<stop  offset="0.6943" style="stop-color:#2F8BE2"/>
			<stop  offset="0.8614" style="stop-color:#125ECD"/>
			<stop  offset="0.9551" style="stop-color:#0041BF"/>
		</linearGradient>
		<path class="st15" d="M320.5,257.4l-36.5,7.4L266.9,235l-55.8,11.2l-4.2,34l-35.9,7.2l25-157.1l39.9-8L320.5,257.4z M255.8,211
			l-28.8-46.7c-2.2-4.2-4.2-8.1-5.9-11.9l-0.7,0.1c0.5,5,0.3,9.6-0.6,14l-6.6,53.2L255.8,211z"/>
	</g>
	
		<linearGradient id="SVGID_17_" gradientUnits="userSpaceOnUse" x1="-1224.7107" y1="329.1267" x2="-1281.8153" y2="250.7737" gradientTransform="matrix(-1 0 0 1 -1097.4473 0)">
		<stop  offset="5.618000e-003" style="stop-color:#FAED8D"/>
		<stop  offset="0.1857" style="stop-color:#F8E686"/>
		<stop  offset="0.4537" style="stop-color:#F4D372"/>
		<stop  offset="0.7749" style="stop-color:#EDB451"/>
		<stop  offset="0.9551" style="stop-color:#E99F3B"/>
	</linearGradient>
	<path class="st16" d="M95.1,230.2l-72.1,15.3c0,0-0.4,0.3-0.6,0.7c-0.2,0.4-0.1,1,1,1.4c2.2,0.9,201.6,132.8,201.6,132.8l58.2-38.2
		L95.1,230.2z"/>
</g>
<g>
	<g>
		<g>
			<g>
				
					<radialGradient id="SVGID_18_" cx="3006.866" cy="-702.5646" r="86.2771" gradientTransform="matrix(-0.7841 0.6206 0.6206 0.7841 2953.323 -1175.4172)" gradientUnits="userSpaceOnUse">
					<stop  offset="0" style="stop-color:#70CAD2"/>
					<stop  offset="0.467" style="stop-color:#409F9C"/>
					<stop  offset="0.8516" style="stop-color:#12695C"/>
					<stop  offset="1" style="stop-color:#034F36"/>
				</radialGradient>
				<polygon class="st17" points="154,213.9 157.8,202.6 147.2,189.2 142.4,199.2 				"/>
			</g>
			<g>
				
					<radialGradient id="SVGID_19_" cx="3057.7258" cy="-666.248" r="77.7158" gradientTransform="matrix(-0.7841 0.6206 0.6206 0.7841 2953.323 -1175.4172)" gradientUnits="userSpaceOnUse">
					<stop  offset="0" style="stop-color:#70CAD2"/>
					<stop  offset="0.467" style="stop-color:#409F9C"/>
					<stop  offset="0.8516" style="stop-color:#12695C"/>
					<stop  offset="1" style="stop-color:#034F36"/>
				</radialGradient>
				<polygon class="st18" points="142.4,199.2 147.2,189.2 134.8,196.6 127.9,207.1 				"/>
			</g>
			<g>
				
					<radialGradient id="SVGID_20_" cx="3084.7224" cy="-623.207" r="96.6854" gradientTransform="matrix(-0.7841 0.6206 0.6206 0.7841 2953.323 -1175.4172)" gradientUnits="userSpaceOnUse">
					<stop  offset="0" style="stop-color:#70CAD2"/>
					<stop  offset="0.467" style="stop-color:#409F9C"/>
					<stop  offset="0.8516" style="stop-color:#12695C"/>
					<stop  offset="1" style="stop-color:#034F36"/>
				</radialGradient>
				<polygon class="st19" points="127.9,207.1 138.5,220.5 154,213.9 142.4,199.2 				"/>
			</g>
		</g>
		<g class="st20">
			<polygon class="st21" points="147.2,189.2 146.8,189.5 142.2,199 128.2,206.6 127.9,207.1 128,207.3 142.3,199.5 153.8,214 
				154,213.9 154.1,213.6 142.7,199.2 147.4,189.5 			"/>
		</g>
	</g>
	<g>
		<g>
			<g>
				
					<radialGradient id="SVGID_21_" cx="1819.4166" cy="255.9783" r="53.3087" gradientTransform="matrix(-0.989 -0.1482 -0.1482 0.989 2141.3457 100.9612)" gradientUnits="userSpaceOnUse">
					<stop  offset="0" style="stop-color:#9FCD23"/>
					<stop  offset="0.144" style="stop-color:#9AC921"/>
					<stop  offset="0.3184" style="stop-color:#8BBD1D"/>
					<stop  offset="0.3886" style="stop-color:#83B61A"/>
					<stop  offset="0.6426" style="stop-color:#6D970B"/>
					<stop  offset="0.8135" style="stop-color:#5C8000"/>
					<stop  offset="0.8633" style="stop-color:#577C00"/>
					<stop  offset="0.9237" style="stop-color:#486F00"/>
					<stop  offset="0.9894" style="stop-color:#305B00"/>
					<stop  offset="1" style="stop-color:#2B5700"/>
				</radialGradient>
				<polygon class="st22" points="268.2,113.3 274.9,110.2 276.4,99.8 269.9,101.8 				"/>
			</g>
			<g>
				
					<radialGradient id="SVGID_22_" cx="1850.8445" cy="278.4166" r="48.0133" gradientTransform="matrix(-0.989 -0.1482 -0.1482 0.989 2141.3457 100.9612)" gradientUnits="userSpaceOnUse">
					<stop  offset="0" style="stop-color:#9FCD23"/>
					<stop  offset="0.144" style="stop-color:#9AC921"/>
					<stop  offset="0.3184" style="stop-color:#8BBD1D"/>
					<stop  offset="0.3886" style="stop-color:#83B61A"/>
					<stop  offset="0.6426" style="stop-color:#6D970B"/>
					<stop  offset="0.8135" style="stop-color:#5C8000"/>
					<stop  offset="0.8633" style="stop-color:#577C00"/>
					<stop  offset="0.9237" style="stop-color:#486F00"/>
					<stop  offset="0.9894" style="stop-color:#305B00"/>
					<stop  offset="1" style="stop-color:#2B5700"/>
				</radialGradient>
				<polygon class="st23" points="269.9,101.8 276.4,99.8 267.9,97.3 260.2,98.6 				"/>
			</g>
			<g>
				
					<radialGradient id="SVGID_23_" cx="1867.5232" cy="305.0067" r="59.7307" gradientTransform="matrix(-0.989 -0.1482 -0.1482 0.989 2141.3457 100.9612)" gradientUnits="userSpaceOnUse">
					<stop  offset="0" style="stop-color:#9FCD23"/>
					<stop  offset="0.144" style="stop-color:#9AC921"/>
					<stop  offset="0.3184" style="stop-color:#8BBD1D"/>
					<stop  offset="0.3886" style="stop-color:#83B61A"/>
					<stop  offset="0.6426" style="stop-color:#6D970B"/>
					<stop  offset="0.8135" style="stop-color:#5C8000"/>
					<stop  offset="0.8633" style="stop-color:#577C00"/>
					<stop  offset="0.9237" style="stop-color:#486F00"/>
					<stop  offset="0.9894" style="stop-color:#305B00"/>
					<stop  offset="1" style="stop-color:#2B5700"/>
				</radialGradient>
				<polygon class="st24" points="260.2,98.6 258.7,109.1 268.2,113.3 269.9,101.8 				"/>
			</g>
		</g>
		<g class="st20">
			<polygon class="st21" points="276.4,99.8 276.1,99.7 269.9,101.6 260.6,98.6 260.2,98.6 260.2,98.8 269.7,101.9 268.1,113.2 
				268.2,113.3 268.4,113.2 270.1,101.9 276.4,100 			"/>
		</g>
	</g>
	<g>
		<g>
			<g>
				
					<radialGradient id="SVGID_24_" cx="-545.0328" cy="-679.8771" r="52.7431" gradientTransform="matrix(0.7692 -0.639 0.639 0.7692 1078.9229 429.1103)" gradientUnits="userSpaceOnUse">
					<stop  offset="0" style="stop-color:#7DD7F3"/>
					<stop  offset="9.829134e-002" style="stop-color:#78D4F1"/>
					<stop  offset="0.2175" style="stop-color:#69CAEC"/>
					<stop  offset="0.3475" style="stop-color:#51BAE3"/>
					<stop  offset="0.4845" style="stop-color:#2FA4D7"/>
					<stop  offset="0.4863" style="stop-color:#2EA4D7"/>
					<stop  offset="0.6461" style="stop-color:#2482B7"/>
					<stop  offset="0.881" style="stop-color:#17568D"/>
					<stop  offset="1" style="stop-color:#12457D"/>
				</radialGradient>
				<polygon class="st25" points="270.3,260.4 263.1,261.3 256.4,253.2 263,251.6 				"/>
			</g>
			<g>
				
					<radialGradient id="SVGID_25_" cx="-513.9399" cy="-657.676" r="47.5054" gradientTransform="matrix(0.7692 -0.639 0.639 0.7692 1078.9229 429.1103)" gradientUnits="userSpaceOnUse">
					<stop  offset="0" style="stop-color:#7DD7F3"/>
					<stop  offset="9.829134e-002" style="stop-color:#78D4F1"/>
					<stop  offset="0.2175" style="stop-color:#69CAEC"/>
					<stop  offset="0.3475" style="stop-color:#51BAE3"/>
					<stop  offset="0.4845" style="stop-color:#2FA4D7"/>
					<stop  offset="0.4863" style="stop-color:#2EA4D7"/>
					<stop  offset="0.6461" style="stop-color:#2482B7"/>
					<stop  offset="0.881" style="stop-color:#17568D"/>
					<stop  offset="1" style="stop-color:#12457D"/>
				</radialGradient>
				<polygon class="st26" points="263,251.6 256.4,253.2 262.4,246.8 269.6,243.9 				"/>
			</g>
			<g>
				
					<radialGradient id="SVGID_26_" cx="-497.4372" cy="-631.3669" r="59.0994" gradientTransform="matrix(0.7692 -0.639 0.639 0.7692 1078.9229 429.1103)" gradientUnits="userSpaceOnUse">
					<stop  offset="0" style="stop-color:#7DD7F3"/>
					<stop  offset="9.829134e-002" style="stop-color:#78D4F1"/>
					<stop  offset="0.2175" style="stop-color:#69CAEC"/>
					<stop  offset="0.3475" style="stop-color:#51BAE3"/>
					<stop  offset="0.4845" style="stop-color:#2FA4D7"/>
					<stop  offset="0.4863" style="stop-color:#2EA4D7"/>
					<stop  offset="0.6461" style="stop-color:#2482B7"/>
					<stop  offset="0.881" style="stop-color:#17568D"/>
					<stop  offset="1" style="stop-color:#12457D"/>
				</radialGradient>
				<polygon class="st27" points="269.6,243.9 276.2,252 270.3,260.4 263,251.6 				"/>
			</g>
		</g>
		<g class="st20">
			<polygon class="st21" points="256.4,253.2 256.6,253 262.9,251.5 269.2,244.1 269.6,243.9 269.7,244.1 263.2,251.6 270.4,260.3 
				270.3,260.4 270.1,260.5 262.9,251.8 256.5,253.4 			"/>
		</g>
	</g>
	<g>
		<g>
			<g>
				
					<radialGradient id="SVGID_27_" cx="1736.8367" cy="231.8882" r="68.0598" gradientTransform="matrix(-1 0 0 1 2024.3438 0)" gradientUnits="userSpaceOnUse">
					<stop  offset="8.791210e-002" style="stop-color:#FFD700"/>
					<stop  offset="0.511" style="stop-color:#FFC23B"/>
					<stop  offset="0.5571" style="stop-color:#FDBD38"/>
					<stop  offset="0.613" style="stop-color:#F8AE31"/>
					<stop  offset="0.674" style="stop-color:#EE9525"/>
					<stop  offset="0.7382" style="stop-color:#E27414"/>
					<stop  offset="0.8022" style="stop-color:#D24A00"/>
					<stop  offset="0.8236" style="stop-color:#C84700"/>
					<stop  offset="0.8592" style="stop-color:#AF3D00"/>
					<stop  offset="0.9047" style="stop-color:#852E00"/>
					<stop  offset="0.9505" style="stop-color:#541C00"/>
					<stop  offset="1" style="stop-color:#2E0300"/>
				</radialGradient>
				<polygon class="st28" points="247.8,275 255.6,269.9 255.6,256.4 247.7,260.2 				"/>
			</g>
			<g>
				
					<radialGradient id="SVGID_28_" cx="1717.8441" cy="307.3129" r="108.9726" gradientTransform="matrix(-1 0 0 1 2024.3438 0)" gradientUnits="userSpaceOnUse">
					<stop  offset="8.791210e-002" style="stop-color:#FFD700"/>
					<stop  offset="0.511" style="stop-color:#FFC23B"/>
					<stop  offset="0.5571" style="stop-color:#FDBD38"/>
					<stop  offset="0.613" style="stop-color:#F8AE31"/>
					<stop  offset="0.674" style="stop-color:#EE9525"/>
					<stop  offset="0.7382" style="stop-color:#E27414"/>
					<stop  offset="0.8022" style="stop-color:#D24A00"/>
					<stop  offset="0.8236" style="stop-color:#C84700"/>
					<stop  offset="0.8592" style="stop-color:#AF3D00"/>
					<stop  offset="0.9047" style="stop-color:#852E00"/>
					<stop  offset="0.9505" style="stop-color:#541C00"/>
					<stop  offset="1" style="stop-color:#2E0300"/>
				</radialGradient>
				<polygon class="st29" points="247.8,275 255.6,269.9 255.6,256.4 247.7,260.2 				"/>
			</g>
			<g>
				
					<radialGradient id="SVGID_29_" cx="1776.9574" cy="260.5373" r="61.3052" gradientTransform="matrix(-1 0 0 1 2024.3438 0)" gradientUnits="userSpaceOnUse">
					<stop  offset="8.791210e-002" style="stop-color:#FFD700"/>
					<stop  offset="0.511" style="stop-color:#FFC23B"/>
					<stop  offset="0.5571" style="stop-color:#FDBD38"/>
					<stop  offset="0.613" style="stop-color:#F8AE31"/>
					<stop  offset="0.674" style="stop-color:#EE9525"/>
					<stop  offset="0.7382" style="stop-color:#E27414"/>
					<stop  offset="0.8022" style="stop-color:#D24A00"/>
					<stop  offset="0.8236" style="stop-color:#C84700"/>
					<stop  offset="0.8592" style="stop-color:#AF3D00"/>
					<stop  offset="0.9047" style="stop-color:#852E00"/>
					<stop  offset="0.9505" style="stop-color:#541C00"/>
					<stop  offset="1" style="stop-color:#2E0300"/>
				</radialGradient>
				<polygon class="st30" points="247.7,260.2 255.6,256.4 244.4,254.9 234.9,258 				"/>
			</g>
			<g>
				
					<radialGradient id="SVGID_30_" cx="1833.7986" cy="352.2956" r="147.8059" gradientTransform="matrix(-1 0 0 1 2024.3438 0)" gradientUnits="userSpaceOnUse">
					<stop  offset="8.791210e-002" style="stop-color:#FFD700"/>
					<stop  offset="0.511" style="stop-color:#FFC23B"/>
					<stop  offset="0.5571" style="stop-color:#FDBD38"/>
					<stop  offset="0.613" style="stop-color:#F8AE31"/>
					<stop  offset="0.674" style="stop-color:#EE9525"/>
					<stop  offset="0.7382" style="stop-color:#E27414"/>
					<stop  offset="0.8022" style="stop-color:#D24A00"/>
					<stop  offset="0.8236" style="stop-color:#C84700"/>
					<stop  offset="0.8592" style="stop-color:#AF3D00"/>
					<stop  offset="0.9047" style="stop-color:#852E00"/>
					<stop  offset="0.9505" style="stop-color:#541C00"/>
					<stop  offset="1" style="stop-color:#2E0300"/>
				</radialGradient>
				<polygon class="st31" points="234.9,258 234.9,271.5 247.8,275 247.7,260.2 				"/>
			</g>
		</g>
		<g class="st32">
			<polygon class="st21" points="255.6,256.4 255.2,256.4 247.7,260 235.3,257.9 234.9,258 234.9,258.2 247.5,260.4 247.6,274.9 
				247.8,275 248,274.9 247.9,260.3 255.6,256.7 			"/>
		</g>
	</g>
</g>
<g>
	<ellipse transform="matrix(0.8379 -0.5459 0.5459 0.8379 -30.891 173.1597)" class="st33" cx="276" cy="138.6" rx="1.8" ry="1.8"/>
	
		<ellipse transform="matrix(0.8376 -0.5463 0.5463 0.8376 -28.9713 181.9669)" class="st33" cx="291.6" cy="139.7" rx="1.1" ry="1.1"/>
	
		<linearGradient id="SVGID_31_" gradientUnits="userSpaceOnUse" x1="238.1618" y1="625.9102" x2="238.1618" y2="632.7905" gradientTransform="matrix(-0.5285 -0.8489 0.8489 -0.5285 -128.428 655.7488)">
		<stop  offset="9.550560e-002" style="stop-color:#008EE8"/>
		<stop  offset="0.6461" style="stop-color:#141A59"/>
	</linearGradient>
	<circle class="st34" cx="279.2" cy="121.4" r="3.4"/>
</g>
<g>
	
		<ellipse transform="matrix(0.9457 -0.325 0.325 0.9457 -42.6714 100.0949)" class="st35" cx="278.3" cy="177.8" rx="3.4" ry="3.4"/>
	
		<linearGradient id="SVGID_32_" gradientUnits="userSpaceOnUse" x1="-372.4604" y1="3344.4846" x2="-372.4604" y2="3348.5674" gradientTransform="matrix(0.9456 -0.3255 0.3255 0.9456 -467.5471 -3078.8093)">
		<stop  offset="9.550560e-002" style="stop-color:#008EE8"/>
		<stop  offset="0.573" style="stop-color:#141A59"/>
	</linearGradient>
	<path class="st36" d="M271.1,204.8c0.4,1.1-0.2,2.3-1.3,2.7c-1.1,0.4-2.3-0.2-2.7-1.3c-0.4-1.1,0.2-2.3,1.3-2.7
		C269.5,203.2,270.7,203.7,271.1,204.8z"/>
	<path class="st35" d="M314,189.5c1.1,3.3-0.8,6.9-4.1,8c-3.3,1.1-6.9-0.8-8-4.1c-1.1-3.3,0.8-6.9,4.1-8
		C309.4,184.3,313,186.1,314,189.5z"/>
</g>
</svg>
