<?xml version="1.0" encoding="utf-8"?>
<!-- Generator: Adobe Illustrator 19.2.1, SVG Export Plug-In . SVG Version: 6.00 Build 0)  -->
<svg version="1.1" id="图层_1" xmlns="http://www.w3.org/2000/svg" xmlns:xlink="http://www.w3.org/1999/xlink" x="0px" y="0px"
	 viewBox="0 0 500 500" style="enable-background:new 0 0 500 500;" xml:space="preserve">
<style type="text/css">
	.st0{fill-rule:evenodd;clip-rule:evenodd;fill:#333333;}
	.st1{fill-rule:evenodd;clip-rule:evenodd;fill:#545454;}
	.st2{fill-rule:evenodd;clip-rule:evenodd;fill:#363636;}
	.st3{fill-rule:evenodd;clip-rule:evenodd;fill:#575758;}
	.st4{fill-rule:evenodd;clip-rule:evenodd;fill:#5C5C5C;}
	.st5{fill-rule:evenodd;clip-rule:evenodd;fill:#616161;}
	.st6{fill-rule:evenodd;clip-rule:evenodd;fill:#6B6C6B;}
	.st7{fill-rule:evenodd;clip-rule:evenodd;fill:#7D7D7E;}
	.st8{fill-rule:evenodd;clip-rule:evenodd;fill:#8F8F8F;}
	.st9{fill-rule:evenodd;clip-rule:evenodd;fill:#595A59;}
	.st10{fill-rule:evenodd;clip-rule:evenodd;fill:#666767;}
	.st11{fill-rule:evenodd;clip-rule:evenodd;fill:#757575;}
	.st12{fill-rule:evenodd;clip-rule:evenodd;fill:#828282;}
	.st13{fill-rule:evenodd;clip-rule:evenodd;fill:#3B3B3B;}
	.st14{fill-rule:evenodd;clip-rule:evenodd;fill:#424242;}
	.st15{fill-rule:evenodd;clip-rule:evenodd;fill:#504F4F;}
	.st16{fill-rule:evenodd;clip-rule:evenodd;fill:#9D9C9C;}
	.st17{fill-rule:evenodd;clip-rule:evenodd;fill:#D6D6D6;}
	.st18{fill-rule:evenodd;clip-rule:evenodd;fill:#2E2E2E;}
	.st19{fill-rule:evenodd;clip-rule:evenodd;fill:#2A2B2B;}
	.st20{fill-rule:evenodd;clip-rule:evenodd;fill:#262626;}
	.st21{fill-rule:evenodd;clip-rule:evenodd;fill:#232424;}
	.st22{fill-rule:evenodd;clip-rule:evenodd;fill:#1F1F1F;}
	.st23{fill-rule:evenodd;clip-rule:evenodd;fill:#030303;}
	.st24{fill-rule:evenodd;clip-rule:evenodd;fill:#242424;}
	.st25{fill-rule:evenodd;clip-rule:evenodd;fill:#484747;}
	.st26{fill-rule:evenodd;clip-rule:evenodd;fill:#696A6A;}
	.st27{fill-rule:evenodd;clip-rule:evenodd;fill:#8B8B8B;}
	.st28{fill-rule:evenodd;clip-rule:evenodd;fill:#ACACAB;}
	.st29{fill-rule:evenodd;clip-rule:evenodd;fill:#CCCCCC;}
	.st30{fill-rule:evenodd;clip-rule:evenodd;fill:#383838;}
	.st31{fill-rule:evenodd;clip-rule:evenodd;fill:#404041;}
	.st32{fill-rule:evenodd;clip-rule:evenodd;fill:#4B4A4A;}
	.st33{fill-rule:evenodd;clip-rule:evenodd;fill:#646363;}
	.st34{fill-rule:evenodd;clip-rule:evenodd;fill:#7D7D7D;}
	.st35{fill-rule:evenodd;clip-rule:evenodd;fill:#191919;}
	.st36{fill-rule:evenodd;clip-rule:evenodd;fill:#303030;}
	.st37{fill-rule:evenodd;clip-rule:evenodd;fill:#5D5E5E;}
	.st38{fill-rule:evenodd;clip-rule:evenodd;fill:#8C8C8C;}
	.st39{fill-rule:evenodd;clip-rule:evenodd;fill:#B8B8B8;}
	.st40{fill-rule:evenodd;clip-rule:evenodd;}
	.st41{fill-rule:evenodd;clip-rule:evenodd;fill:#EBEBEB;}
	.st42{fill-rule:evenodd;clip-rule:evenodd;fill:url(#SVGID_1_);}
	.st43{fill-rule:evenodd;clip-rule:evenodd;fill:url(#SVGID_2_);}
	.st44{fill-rule:evenodd;clip-rule:evenodd;fill:url(#SVGID_3_);}
	.st45{fill-rule:evenodd;clip-rule:evenodd;fill:url(#SVGID_4_);}
	.st46{fill-rule:evenodd;clip-rule:evenodd;fill:url(#SVGID_5_);}
	.st47{fill-rule:evenodd;clip-rule:evenodd;fill:url(#SVGID_6_);}
	.st48{fill-rule:evenodd;clip-rule:evenodd;fill:url(#SVGID_7_);}
	.st49{fill-rule:evenodd;clip-rule:evenodd;fill:url(#SVGID_8_);}
	.st50{fill-rule:evenodd;clip-rule:evenodd;fill:url(#SVGID_9_);}
	.st51{fill-rule:evenodd;clip-rule:evenodd;fill:url(#SVGID_10_);}
	.st52{fill-rule:evenodd;clip-rule:evenodd;fill:url(#SVGID_11_);}
	.st53{fill-rule:evenodd;clip-rule:evenodd;fill:#FFFFFF;}
	.st54{fill-rule:evenodd;clip-rule:evenodd;fill:url(#SVGID_12_);}
	.st55{fill-rule:evenodd;clip-rule:evenodd;fill:url(#SVGID_13_);}
	.st56{fill-rule:evenodd;clip-rule:evenodd;fill:url(#SVGID_14_);}
	.st57{fill-rule:evenodd;clip-rule:evenodd;fill:url(#SVGID_15_);}
	.st58{fill-rule:evenodd;clip-rule:evenodd;fill:url(#SVGID_16_);}
	.st59{fill-rule:evenodd;clip-rule:evenodd;fill:url(#SVGID_17_);}
	.st60{fill-rule:evenodd;clip-rule:evenodd;fill:url(#SVGID_18_);}
	.st61{fill-rule:evenodd;clip-rule:evenodd;fill:url(#SVGID_19_);}
	.st62{fill-rule:evenodd;clip-rule:evenodd;fill:url(#SVGID_20_);}
	.st63{fill-rule:evenodd;clip-rule:evenodd;fill:url(#SVGID_21_);}
	.st64{fill-rule:evenodd;clip-rule:evenodd;fill:url(#SVGID_22_);}
	.st65{fill-rule:evenodd;clip-rule:evenodd;fill:url(#SVGID_23_);}
	.st66{fill-rule:evenodd;clip-rule:evenodd;fill:url(#SVGID_24_);}
	.st67{fill-rule:evenodd;clip-rule:evenodd;fill:url(#SVGID_25_);}
	.st68{fill-rule:evenodd;clip-rule:evenodd;fill:url(#SVGID_26_);}
	.st69{fill-rule:evenodd;clip-rule:evenodd;fill:url(#SVGID_27_);}
	.st70{fill-rule:evenodd;clip-rule:evenodd;fill:url(#SVGID_28_);}
	.st71{fill-rule:evenodd;clip-rule:evenodd;fill:url(#SVGID_29_);}
	.st72{fill-rule:evenodd;clip-rule:evenodd;fill:url(#SVGID_30_);}
	.st73{fill-rule:evenodd;clip-rule:evenodd;fill:url(#SVGID_31_);}
	.st74{fill-rule:evenodd;clip-rule:evenodd;fill:url(#SVGID_32_);}
	.st75{fill-rule:evenodd;clip-rule:evenodd;fill:url(#SVGID_33_);}
	.st76{fill-rule:evenodd;clip-rule:evenodd;fill:url(#SVGID_34_);}
	.st77{fill-rule:evenodd;clip-rule:evenodd;fill:url(#SVGID_35_);}
	.st78{fill-rule:evenodd;clip-rule:evenodd;fill:url(#SVGID_36_);}
	.st79{fill-rule:evenodd;clip-rule:evenodd;fill:url(#SVGID_37_);}
	.st80{fill-rule:evenodd;clip-rule:evenodd;fill:url(#SVGID_38_);}
	.st81{fill-rule:evenodd;clip-rule:evenodd;fill:url(#SVGID_39_);}
	.st82{fill-rule:evenodd;clip-rule:evenodd;fill:url(#SVGID_40_);}
	.st83{fill-rule:evenodd;clip-rule:evenodd;fill:url(#SVGID_41_);}
	.st84{fill-rule:evenodd;clip-rule:evenodd;fill:url(#SVGID_42_);}
	.st85{fill-rule:evenodd;clip-rule:evenodd;fill:url(#SVGID_43_);}
	.st86{fill-rule:evenodd;clip-rule:evenodd;fill:url(#SVGID_44_);}
</style>
<g>
	<path class="st0" d="M22.7,358L34,266.2h434.2l11.2,91.3c0.1,4.8-2.1,8.4-9.3,9.8h-437C26.9,366.7,22.8,364.2,22.7,358z"/>
	<polygon class="st1" points="6,265.4 23,132.7 477,132.7 494.1,265.4 	"/>
	<path class="st2" d="M10.6,361.8L6,265.4H494l0,0.3l-4.6,96H10.6z M6,265.5L6,265.5L6,265.5L6,265.5z"/>
	<path class="st1" d="M6.1,265.4h486.4C486.5,248-1.7,242.9,6.1,265.4z"/>
	<path class="st3" d="M6.1,265.4h486.4C486.4,250.5-1.8,245.5,6.1,265.4z"/>
	<path class="st4" d="M6.1,265.4h486.4C486.3,253-1.9,248.1,6.1,265.4z"/>
	<path class="st5" d="M6.1,265.4h486.4C486.2,255.5-2,250.7,6.1,265.4z"/>
	<path class="st6" d="M6.1,265.4h486.4C486.1,258-2.2,253.3,6.1,265.4z"/>
	<path class="st7" d="M6.1,265.4h486.4C486,260.5-2.3,255.9,6.1,265.4z"/>
	<path class="st8" d="M6.1,265.4h486.4C485.8,262.9-2.4,258.5,6.1,265.4z"/>
	<path class="st1" d="M23.4,133.5h454C486.3,212.1,31.9,225.2,23.4,133.5z"/>
	<path class="st3" d="M23.4,133.5c6.7,83,461.2,70.4,454,0H23.4z"/>
	<path class="st9" d="M23.4,133.5c4.8,74.2,459.5,62.2,454,0H23.4z"/>
	<path class="st4" d="M23.4,133.5c3,65.5,457.9,54,454,0H23.4z"/>
	<path class="st5" d="M23.4,133.5c1.2,56.8,456.2,45.8,454,0H23.4z"/>
	<path class="st10" d="M23.4,133.5c-0.6,48,454.5,37.5,454,0H23.4z"/>
	<path class="st6" d="M23.4,133.5c-2.4,39.3,452.9,29.3,454,0H23.4z"/>
	<path class="st11" d="M23.4,133.5c-4.3,30.6,451.2,21.1,454,0H23.4z"/>
	<path class="st12" d="M23.4,133.5c-6.1,21.9,449.5,12.9,454,0H23.4z"/>
	<path class="st8" d="M23.4,133.5h454C471.3,138.2,15.5,146.6,23.4,133.5z"/>
	<path class="st2" d="M6.1,265.1h486.4C487,292.4-1.2,297.5,6.1,265.1z"/>
	<path class="st13" d="M6.1,265.1c-7.5,27.7,480.7,22.9,486.4,0H6.1z"/>
	<path class="st14" d="M6.1,265.1c-7.8,23.1,480.5,18.5,486.4,0H6.1z"/>
	<path class="st15" d="M6.1,265.1c-8,18.5,480.2,14.1,486.4,0H6.1z"/>
	<path class="st10" d="M6.1,265.1c-8.3,13.8,479.9,9.6,486.4,0H6.1z"/>
	<path class="st16" d="M6.1,265.1c-8.6,9.2,479.7,5.2,486.4,0H6.1z"/>
	<path class="st17" d="M6.1,265.1h486.4C485.5,265.9-2.8,269.7,6.1,265.1z"/>
	<path class="st2" d="M10,342.8h479.3C484,352.8,2.9,354.6,10,342.8z"/>
	<path class="st0" d="M10,342.8c-7.3,10.8,473.8,8.6,479.3,0H10z"/>
	<path class="st18" d="M10,342.8c-7.5,9.8,473.6,7.3,479.3,0H10z"/>
	<path class="st19" d="M10,342.8c-7.7,8.8,473.4,6,479.3,0H10z"/>
	<path class="st20" d="M10,342.8c-7.9,7.8,473.2,4.7,479.3,0H10z"/>
	<path class="st21" d="M10,342.8c-8.1,6.8,473,3.4,479.3,0H10z"/>
	<path class="st22" d="M10,342.8h479.3C482.8,344.8,1.7,348.5,10,342.8z"/>
	<polygon class="st23" points="11,342.8 8.4,287.5 491.6,287.5 489,342.8 	"/>
	<polygon class="st24" points="13.3,287.5 6,281.2 494,281.2 486.7,287.5 	"/>
	<path class="st23" d="M9.2,287.5h480.9C484.7,300.4,2.1,302.8,9.2,287.5z"/>
	<path class="st20" d="M9.2,287.5c-7.3,13.2,475.3,10.9,480.9,0H9.2z"/>
	<path class="st25" d="M9.2,287.5c-7.5,11.1,475.1,8.9,480.9,0H9.2z"/>
	<path class="st26" d="M9.2,287.5c-7.8,9,474.9,6.9,480.9,0H9.2z"/>
	<path class="st27" d="M9.2,287.5c-8,6.9,474.7,4.9,480.9,0H9.2z"/>
	<path class="st28" d="M9.2,287.5c-8.2,4.8,474.6,2.9,480.9,0H9.2z"/>
	<path class="st29" d="M9.2,287.5h480.9C483.6,288.5,0.8,290.2,9.2,287.5z"/>
	<path class="st2" d="M10.8,361.8h478.5C484,351.2,3.7,349.2,10.8,361.8z"/>
	<path class="st30" d="M10.8,361.8h478.5C483.7,352.9,3.4,351,10.8,361.8z"/>
	<path class="st13" d="M10.8,361.8h478.5C483.5,354.6,3.2,352.8,10.8,361.8z"/>
	<path class="st31" d="M10.8,361.8h478.5C483.2,356.3,2.9,354.6,10.8,361.8z"/>
	<path class="st32" d="M10.8,361.8h478.5C482.9,358,2.6,356.4,10.8,361.8z"/>
	<path class="st33" d="M10.8,361.8h478.5C482.7,359.7,2.4,358.2,10.8,361.8z"/>
	<path class="st34" d="M10.8,361.8h478.5C482.4,361.4,2.1,360,10.8,361.8z"/>
	<path class="st23" d="M11.5,342.8h477.1C483.3,334.4,4.4,332.8,11.5,342.8z"/>
	<path class="st35" d="M11.5,342.8h477.1C483.1,335.7,4.2,334.2,11.5,342.8z"/>
	<path class="st36" d="M11.5,342.8h477.1C482.9,337,4,335.5,11.5,342.8z"/>
	<path class="st25" d="M11.5,342.8h477.1C482.7,338.3,3.8,336.9,11.5,342.8z"/>
	<path class="st37" d="M11.5,342.8h477.1C482.5,339.6,3.6,338.3,11.5,342.8z"/>
	<path class="st11" d="M11.5,342.8h477.1C482.3,340.9,3.4,339.7,11.5,342.8z"/>
	<path class="st38" d="M11.5,342.8h477.1C482.1,342.2,3.2,341,11.5,342.8z"/>
	<g>
		<path class="st39" d="M113.5,194.6c0.2-1.8,2.2-3.3,4.6-3.3c2.4,0,4.2,1.5,4.1,3.3c-0.1,1.8-2.2,3.3-4.6,3.3
			C115.2,197.9,113.4,196.5,113.5,194.6z M130.8,194.6c0.1-1.8,2.2-3.3,4.5-3.3c2.4,0,4.2,1.5,4.1,3.3c-0.1,1.8-2.2,3.3-4.6,3.3
			C132.5,197.9,130.7,196.5,130.8,194.6z M148.2,194.6c0.1-1.8,2.1-3.3,4.5-3.3c2.4,0,4.3,1.5,4.2,3.3c-0.1,1.8-2.1,3.3-4.5,3.3
			C149.9,197.9,148,196.5,148.2,194.6z M165.5,194.6c0.1-1.8,2.1-3.3,4.5-3.3s4.3,1.5,4.2,3.3c-0.1,1.8-2.1,3.3-4.5,3.3
			C167.2,197.9,165.4,196.5,165.5,194.6z M182.8,194.6c0.1-1.8,2-3.3,4.4-3.3c2.4,0,4.3,1.5,4.2,3.3c0,1.8-2.1,3.3-4.5,3.3
			C184.6,197.9,182.7,196.5,182.8,194.6z M200.1,194.6c0-1.8,2-3.3,4.4-3.3c2.4,0,4.3,1.5,4.3,3.3c0,1.8-2,3.3-4.4,3.3
			C202,197.9,200.1,196.5,200.1,194.6z M217.5,194.6c0-1.8,2-3.3,4.4-3.3c2.4,0,4.3,1.5,4.3,3.3c0,1.8-2,3.3-4.4,3.3
			C219.4,197.9,217.5,196.5,217.5,194.6z M234.9,194.6c0-1.8,1.9-3.3,4.3-3.3c2.4,0,4.4,1.5,4.4,3.3c0,1.8-2,3.3-4.4,3.3
			C236.8,197.9,234.9,196.5,234.9,194.6z M252.3,194.6c0-1.8,1.9-3.3,4.3-3.3c2.4,0,4.4,1.5,4.4,3.3c0,1.8-1.9,3.3-4.3,3.3
			C254.2,197.9,252.3,196.5,252.3,194.6z M269.7,194.6c0-1.8,1.9-3.3,4.3-3.3c2.4,0,4.4,1.5,4.4,3.3c0,1.8-1.9,3.3-4.3,3.3
			S269.7,196.5,269.7,194.6z M287.1,194.6c-0.1-1.8,1.8-3.3,4.2-3.3c2.4,0,4.4,1.5,4.5,3.3c0.1,1.8-1.8,3.3-4.3,3.3
			C289.1,197.9,287.1,196.5,287.1,194.6z M304.5,194.6c-0.1-1.8,1.8-3.3,4.2-3.3c2.4,0,4.4,1.5,4.5,3.3c0.1,1.8-1.8,3.3-4.2,3.3
			C306.6,197.9,304.6,196.5,304.5,194.6z M321.9,194.6c-0.1-1.8,1.8-3.3,4.2-3.3c2.4,0,4.4,1.5,4.6,3.3c0.1,1.8-1.8,3.3-4.2,3.3
			C324,197.9,322,196.5,321.9,194.6z M339.3,194.6c-0.1-1.8,1.7-3.3,4.1-3.3c2.4,0,4.5,1.5,4.6,3.3c0.1,1.8-1.7,3.3-4.1,3.3
			C341.5,197.9,339.5,196.5,339.3,194.6z M356.8,194.6c-0.2-1.8,1.7-3.3,4.1-3.3c2.4,0,4.5,1.5,4.6,3.3c0.2,1.8-1.7,3.3-4.1,3.3
			C359,197.9,356.9,196.5,356.8,194.6z M374.2,194.6c-0.2-1.8,1.6-3.3,4-3.3c2.4,0,4.5,1.5,4.7,3.3c0.2,1.8-1.6,3.3-4,3.3
			C376.5,197.9,374.4,196.5,374.2,194.6z M373,181.5c-0.2-1.8,1.6-3.2,4-3.2c2.4,0,4.5,1.5,4.7,3.2c0.2,1.8-1.6,3.3-4,3.3
			C375.2,184.8,373.1,183.3,373,181.5z M355.6,181.5c-0.2-1.8,1.6-3.2,4-3.2s4.5,1.4,4.6,3.2c0.2,1.8-1.6,3.3-4,3.3
			C357.9,184.8,355.8,183.3,355.6,181.5z M338.3,181.5c-0.1-1.8,1.7-3.2,4-3.2c2.4,0,4.4,1.4,4.6,3.2c0.2,1.8-1.7,3.3-4.1,3.3
			C340.5,184.8,338.5,183.3,338.3,181.5z M321,181.5c-0.1-1.8,1.7-3.2,4.1-3.2c2.4,0,4.4,1.4,4.6,3.2c0.1,1.8-1.7,3.3-4.1,3.3
			C323.2,184.8,321.2,183.3,321,181.5z M303.8,181.5c-0.1-1.8,1.7-3.2,4.1-3.2c2.4,0,4.4,1.5,4.5,3.3c0.1,1.8-1.7,3.3-4.1,3.3
			C305.9,184.8,303.9,183.3,303.8,181.5z M286.5,181.5c-0.1-1.8,1.8-3.3,4.1-3.3c2.4,0,4.4,1.5,4.5,3.3c0.1,1.8-1.8,3.3-4.1,3.3
			C288.6,184.8,286.6,183.3,286.5,181.5z M269.2,181.5c-0.1-1.8,1.8-3.3,4.2-3.3c2.4,0,4.4,1.5,4.5,3.3c0.1,1.8-1.8,3.3-4.2,3.3
			C271.3,184.8,269.3,183.3,269.2,181.5z M252,181.5c-0.1-1.8,1.8-3.3,4.2-3.3c2.4,0,4.4,1.5,4.4,3.3c0.1,1.8-1.8,3.3-4.2,3.3
			C254,184.8,252,183.3,252,181.5z M234.7,181.5c0-1.8,1.8-3.3,4.2-3.3c2.4,0,4.4,1.5,4.4,3.3c0.1,1.8-1.8,3.3-4.2,3.3
			C236.7,184.7,234.8,183.3,234.7,181.5z M217.5,181.5c0-1.8,1.9-3.3,4.2-3.3c2.4,0,4.3,1.5,4.4,3.3c0,1.8-1.9,3.3-4.3,3.3
			C219.5,184.7,217.5,183.3,217.5,181.5z M200.3,181.5c0-1.8,1.9-3.3,4.3-3.3c2.4,0,4.3,1.5,4.3,3.3c0,1.8-1.9,3.3-4.3,3.3
			C202.2,184.7,200.3,183.3,200.3,181.5z M183.1,181.4c0-1.8,1.9-3.3,4.3-3.3c2.4,0,4.3,1.5,4.3,3.3c0,1.8-1.9,3.3-4.3,3.3
			C185,184.7,183,183.3,183.1,181.4z M165.9,181.4c0-1.8,2-3.3,4.3-3.3c2.4,0,4.3,1.5,4.3,3.3c0,1.8-2,3.3-4.4,3.3
			C167.7,184.7,165.8,183.2,165.9,181.4z M131.5,181.4c0.1-1.8,2-3.3,4.4-3.3c2.4,0,4.2,1.5,4.2,3.3c-0.1,1.8-2,3.3-4.4,3.3
			C133.3,184.7,131.5,183.2,131.5,181.4z M148.7,181.4c0-1.8,2-3.3,4.4-3.3c2.4,0,4.3,1.5,4.2,3.3c0,1.8-2,3.3-4.4,3.3
			C150.5,184.7,148.6,183.2,148.7,181.4z M114.4,181.4c0.1-1.8,2.1-3.3,4.4-3.3c2.4,0,4.2,1.5,4.2,3.3c-0.1,1.8-2.1,3.3-4.4,3.3
			C116.2,184.7,114.3,183.2,114.4,181.4z M371.6,168.7c-0.2-1.8,1.6-3.2,3.9-3.2c2.4,0,4.5,1.4,4.6,3.2c0.2,1.8-1.6,3.2-3.9,3.2
			C373.9,171.9,371.8,170.4,371.6,168.7z M354.4,168.6c-0.2-1.8,1.6-3.2,4-3.2c2.4,0,4.4,1.4,4.6,3.2c0.2,1.8-1.6,3.2-4,3.2
			C356.7,171.9,354.6,170.4,354.4,168.6z M337.2,168.6c-0.2-1.8,1.6-3.2,4-3.2c2.4,0,4.4,1.4,4.6,3.2c0.2,1.8-1.6,3.2-4,3.2
			C339.4,171.8,337.4,170.4,337.2,168.6z M320.1,168.6c-0.1-1.8,1.7-3.2,4-3.2c2.4,0,4.4,1.4,4.6,3.2c0.2,1.8-1.7,3.2-4,3.2
			C322.2,171.8,320.2,170.4,320.1,168.6z M302.9,168.6c-0.1-1.8,1.7-3.2,4.1-3.2c2.4,0,4.4,1.4,4.5,3.2c0.1,1.8-1.7,3.2-4.1,3.2
			C305.1,171.8,303,170.4,302.9,168.6z M285.7,168.6c-0.1-1.8,1.7-3.2,4.1-3.2c2.4,0,4.4,1.4,4.5,3.2c0.1,1.8-1.7,3.2-4.1,3.2
			C287.9,171.8,285.9,170.3,285.7,168.6z M268.6,168.5c-0.1-1.8,1.7-3.2,4.1-3.2c2.4,0,4.4,1.4,4.5,3.2c0.1,1.8-1.7,3.2-4.1,3.2
			C270.7,171.8,268.7,170.3,268.6,168.5z M251.5,168.5c-0.1-1.8,1.8-3.2,4.1-3.2c2.4,0,4.3,1.4,4.4,3.2c0.1,1.8-1.8,3.2-4.1,3.2
			C253.5,171.7,251.5,170.3,251.5,168.5z M234.3,168.5c-0.1-1.8,1.8-3.2,4.2-3.2c2.4,0,4.3,1.4,4.4,3.2c0.1,1.8-1.8,3.2-4.2,3.2
			C236.4,171.7,234.4,170.3,234.3,168.5z M217.2,168.5c0-1.8,1.8-3.2,4.2-3.2c2.4,0,4.3,1.4,4.4,3.2c0.1,1.8-1.8,3.2-4.2,3.2
			C219.2,171.7,217.3,170.3,217.2,168.5z M200.1,168.4c0-1.8,1.9-3.2,4.2-3.2c2.3,0,4.3,1.4,4.3,3.2c0,1.8-1.9,3.2-4.2,3.2
			C202.1,171.7,200.1,170.2,200.1,168.4z M183,168.4c0-1.8,1.9-3.2,4.2-3.2c2.3,0,4.3,1.4,4.3,3.2c0,1.8-1.9,3.2-4.2,3.2
			C185,171.7,183,170.2,183,168.4z M165.9,168.4c0-1.8,1.9-3.2,4.3-3.2c2.3,0,4.3,1.4,4.3,3.2c0,1.8-1.9,3.2-4.3,3.2
			C167.9,171.6,165.9,170.2,165.9,168.4z M148.9,168.4c0-1.8,1.9-3.2,4.3-3.2c2.3,0,4.3,1.4,4.2,3.2c0,1.8-1.9,3.2-4.3,3.2
			C150.8,171.6,148.9,170.2,148.9,168.4z M131.9,168.4c0-1.8,2-3.2,4.3-3.2c2.3,0,4.2,1.4,4.2,3.2c0,1.8-2,3.2-4.3,3.2
			C133.7,171.6,131.8,170.2,131.9,168.4z M114.9,168.4c0.1-1.8,2-3.2,4.3-3.2c2.3,0,4.2,1.4,4.2,3.2c0,1.8-2,3.2-4.3,3.2
			C116.7,171.6,114.8,170.1,114.9,168.4z M370.2,156c-0.2-1.7,1.6-3.1,3.9-3.1c2.3,0,4.4,1.4,4.6,3.1c0.2,1.7-1.6,3.1-3.9,3.1
			C372.5,159.2,370.4,157.8,370.2,156z M353.2,156c-0.2-1.7,1.6-3.1,4-3.1c2.3,0,4.4,1.4,4.6,3.1c0.2,1.7-1.6,3.1-3.9,3.1
			C355.4,159.2,353.3,157.7,353.2,156z M336.1,156c-0.2-1.7,1.6-3.1,4-3.1c2.3,0,4.4,1.4,4.5,3.1c0.2,1.7-1.6,3.1-4,3.1
			C338.3,159.1,336.3,157.7,336.1,156z M319.1,156c-0.1-1.7,1.7-3.1,4-3.1c2.3,0,4.4,1.4,4.5,3.1c0.1,1.7-1.7,3.1-4,3.1
			C321.2,159.1,319.2,157.7,319.1,156z M302,155.9c-0.1-1.7,1.7-3.1,4-3.1c2.3,0,4.4,1.4,4.5,3.1c0.1,1.7-1.7,3.1-4,3.1
			C304.1,159.1,302.1,157.6,302,155.9z M285,155.9c-0.1-1.7,1.7-3.1,4.1-3.1c2.3,0,4.3,1.4,4.5,3.1c0.1,1.7-1.7,3.1-4.1,3.1
			C287.1,159,285.1,157.6,285,155.9z M267.9,155.8c-0.1-1.7,1.7-3.1,4.1-3.1c2.3,0,4.3,1.4,4.4,3.1c0.1,1.7-1.7,3.1-4.1,3.1
			C270,159,268,157.6,267.9,155.8z M250.9,155.8c-0.1-1.7,1.8-3.1,4.1-3.1c2.3,0,4.3,1.4,4.4,3.1c0.1,1.7-1.8,3.2-4.1,3.1
			C252.9,159,251,157.5,250.9,155.8z M233.9,155.7c-0.1-1.7,1.8-3.1,4.1-3.1c2.3,0,4.3,1.4,4.4,3.2c0.1,1.7-1.8,3.2-4.1,3.2
			C235.9,158.9,233.9,157.5,233.9,155.7z M216.9,155.7c0-1.7,1.8-3.1,4.2-3.1c2.3,0,4.3,1.4,4.3,3.2c0,1.7-1.8,3.2-4.2,3.2
			C218.8,158.9,216.9,157.4,216.9,155.7z M199.9,155.7c0-1.7,1.9-3.1,4.2-3.1c2.3,0,4.3,1.4,4.3,3.2c0,1.7-1.8,3.2-4.2,3.2
			C201.8,158.8,199.9,157.4,199.9,155.7z M182.9,155.6c0-1.7,1.9-3.1,4.2-3.1c2.3,0,4.2,1.4,4.3,3.2c0,1.7-1.9,3.2-4.2,3.2
			C184.8,158.8,182.9,157.4,182.9,155.6z M165.9,155.6c0-1.8,1.9-3.2,4.2-3.2c2.3,0,4.2,1.4,4.2,3.2c0,1.7-1.9,3.2-4.2,3.2
			C167.8,158.8,165.9,157.3,165.9,155.6z M149,155.6c0-1.8,1.9-3.2,4.3-3.2c2.3,0,4.2,1.4,4.2,3.2c0,1.7-1.9,3.2-4.3,3.2
			C150.9,158.7,149,157.3,149,155.6z M132.1,155.5c0-1.8,2-3.2,4.3-3.2c2.3,0,4.2,1.4,4.2,3.2c0,1.7-1.9,3.2-4.3,3.2
			C133.9,158.7,132.1,157.3,132.1,155.5z M115.2,155.5c0.1-1.8,2-3.2,4.3-3.2c2.3,0,4.2,1.4,4.1,3.2c0,1.8-2,3.2-4.3,3.2
			C117,158.7,115.2,157.3,115.2,155.5z"/>
		<path class="st40" d="M113.3,195.6c0.2-1.8,2.2-3.3,4.6-3.3c2.4,0,4.2,1.5,4.1,3.3c-0.1,1.8-2.2,3.3-4.6,3.3
			C114.9,198.9,113.1,197.4,113.3,195.6z M130.6,195.6c0.1-1.8,2.2-3.3,4.5-3.3c2.4,0,4.2,1.5,4.1,3.3c-0.1,1.8-2.2,3.3-4.6,3.3
			C132.2,198.9,130.4,197.4,130.6,195.6z M147.9,195.6c0.1-1.8,2.1-3.3,4.5-3.3c2.4,0,4.3,1.5,4.2,3.3c-0.1,1.8-2.1,3.3-4.5,3.3
			C149.6,198.9,147.8,197.4,147.9,195.6z M165.2,195.6c0.1-1.8,2.1-3.3,4.5-3.3c2.4,0,4.3,1.5,4.2,3.3c-0.1,1.8-2.1,3.3-4.5,3.3
			C167,198.9,165.1,197.4,165.2,195.6z M182.5,195.6c0.1-1.8,2-3.3,4.4-3.3c2.4,0,4.3,1.5,4.2,3.3c-0.1,1.8-2.1,3.3-4.5,3.3
			C184.3,198.9,182.4,197.4,182.5,195.6z M199.9,195.6c0-1.8,2-3.3,4.4-3.3c2.4,0,4.3,1.5,4.3,3.3c0,1.8-2,3.3-4.4,3.3
			C201.7,198.9,199.8,197.4,199.9,195.6z M217.2,195.6c0-1.8,2-3.3,4.4-3.3c2.4,0,4.3,1.5,4.3,3.3c0,1.8-2,3.3-4.4,3.3
			C219.1,198.9,217.2,197.4,217.2,195.6z M234.6,195.6c0-1.8,1.9-3.3,4.3-3.3c2.4,0,4.3,1.5,4.4,3.3c0,1.8-2,3.3-4.4,3.3
			C236.5,198.9,234.6,197.4,234.6,195.6z M252,195.6c0-1.8,1.9-3.3,4.3-3.3c2.4,0,4.4,1.5,4.4,3.3c0,1.8-1.9,3.3-4.3,3.3
			C253.9,198.9,252,197.4,252,195.6z M269.4,195.6c0-1.8,1.9-3.3,4.3-3.3c2.4,0,4.4,1.5,4.4,3.3c0,1.8-1.9,3.3-4.3,3.3
			C271.4,198.9,269.4,197.4,269.4,195.6z M286.8,195.6c-0.1-1.8,1.8-3.3,4.2-3.3c2.4,0,4.4,1.5,4.5,3.3c0.1,1.8-1.8,3.3-4.2,3.3
			C288.8,198.9,286.8,197.4,286.8,195.6z M304.2,195.6c-0.1-1.8,1.8-3.3,4.2-3.3c2.4,0,4.4,1.5,4.5,3.3c0.1,1.8-1.8,3.3-4.2,3.3
			C306.3,198.9,304.3,197.4,304.2,195.6z M321.6,195.6c-0.1-1.8,1.8-3.3,4.2-3.3c2.4,0,4.4,1.5,4.6,3.3c0.1,1.8-1.8,3.3-4.2,3.3
			C323.7,198.9,321.7,197.4,321.6,195.6z M339.1,195.6c-0.1-1.8,1.7-3.3,4.1-3.3c2.4,0,4.5,1.5,4.6,3.3c0.1,1.8-1.7,3.3-4.1,3.3
			C341.2,198.9,339.2,197.4,339.1,195.6z M356.5,195.6c-0.1-1.8,1.7-3.3,4.1-3.3c2.4,0,4.5,1.5,4.6,3.3c0.2,1.8-1.7,3.3-4.1,3.3
			C358.7,198.9,356.7,197.4,356.5,195.6z M374,195.6c-0.2-1.8,1.6-3.3,4-3.3c2.4,0,4.5,1.5,4.7,3.3c0.2,1.8-1.6,3.3-4,3.3
			C376.2,198.9,374.1,197.4,374,195.6z M372.7,182.5c-0.2-1.8,1.6-3.2,4-3.2c2.4,0,4.5,1.4,4.7,3.2c0.2,1.8-1.6,3.3-4,3.3
			C374.9,185.7,372.9,184.3,372.7,182.5z M355.4,182.5c-0.2-1.8,1.6-3.2,4-3.2c2.4,0,4.5,1.4,4.6,3.2c0.2,1.8-1.6,3.3-4,3.3
			C357.6,185.7,355.5,184.3,355.4,182.5z M338.1,182.5c-0.1-1.8,1.7-3.2,4-3.2c2.4,0,4.4,1.4,4.6,3.2c0.2,1.8-1.7,3.3-4.1,3.3
			C340.3,185.7,338.2,184.3,338.1,182.5z M320.8,182.5c-0.1-1.8,1.7-3.2,4.1-3.2c2.4,0,4.4,1.5,4.6,3.3c0.1,1.8-1.7,3.3-4.1,3.3
			C322.9,185.7,320.9,184.3,320.8,182.5z M303.5,182.5c-0.1-1.8,1.7-3.2,4.1-3.2c2.4,0,4.4,1.5,4.5,3.3c0.1,1.8-1.7,3.3-4.1,3.3
			C305.6,185.7,303.6,184.3,303.5,182.5z M286.2,182.5c-0.1-1.8,1.8-3.3,4.1-3.3c2.4,0,4.4,1.5,4.5,3.3c0.1,1.8-1.8,3.3-4.1,3.3
			C288.3,185.7,286.3,184.2,286.2,182.5z M268.9,182.4c-0.1-1.8,1.8-3.3,4.2-3.3c2.4,0,4.4,1.5,4.5,3.3c0.1,1.8-1.8,3.3-4.2,3.3
			C271,185.7,269,184.2,268.9,182.4z M251.7,182.4c-0.1-1.8,1.8-3.3,4.2-3.3c2.4,0,4.4,1.5,4.4,3.3c0.1,1.8-1.8,3.3-4.2,3.3
			C253.7,185.7,251.7,184.2,251.7,182.4z M234.4,182.4c0-1.8,1.8-3.3,4.2-3.3c2.4,0,4.3,1.5,4.4,3.3c0.1,1.8-1.8,3.3-4.2,3.3
			C236.4,185.7,234.5,184.2,234.4,182.4z M217.2,182.4c0-1.8,1.9-3.3,4.3-3.3c2.4,0,4.3,1.5,4.4,3.3c0,1.8-1.9,3.3-4.3,3.3
			C219.2,185.7,217.2,184.2,217.2,182.4z M200,182.4c0-1.8,1.9-3.3,4.3-3.3c2.4,0,4.3,1.5,4.3,3.3c0,1.8-1.9,3.3-4.3,3.3
			C201.9,185.7,200,184.2,200,182.4z M182.8,182.4c0-1.8,1.9-3.3,4.3-3.3c2.4,0,4.3,1.5,4.3,3.3c0,1.8-1.9,3.3-4.3,3.3
			C184.7,185.7,182.8,184.2,182.8,182.4z M165.6,182.4c0-1.8,2-3.3,4.3-3.3c2.4,0,4.3,1.5,4.3,3.3c0,1.8-2,3.3-4.3,3.3
			C167.5,185.7,165.6,184.2,165.6,182.4z M131.3,182.4c0.1-1.8,2-3.3,4.4-3.3c2.4,0,4.2,1.5,4.2,3.3c-0.1,1.8-2,3.3-4.4,3.3
			C133.1,185.7,131.2,184.2,131.3,182.4z M148.4,182.4c0-1.8,2-3.3,4.4-3.3c2.4,0,4.3,1.5,4.2,3.3c0,1.8-2,3.3-4.4,3.3
			C150.2,185.7,148.4,184.2,148.4,182.4z M114.1,182.4c0.1-1.8,2.1-3.3,4.4-3.3c2.4,0,4.2,1.5,4.2,3.3c-0.1,1.8-2.1,3.3-4.4,3.3
			C115.9,185.7,114,184.2,114.1,182.4z M371.3,169.6c-0.2-1.8,1.6-3.2,3.9-3.2c2.4,0,4.5,1.4,4.6,3.2c0.2,1.8-1.6,3.2-3.9,3.2
			C373.6,172.8,371.5,171.4,371.3,169.6z M354.1,169.6c-0.2-1.8,1.6-3.2,4-3.2c2.4,0,4.4,1.4,4.6,3.2c0.2,1.8-1.6,3.2-4,3.2
			C356.4,172.8,354.3,171.4,354.1,169.6z M337,169.6c-0.2-1.8,1.6-3.2,4-3.2c2.4,0,4.4,1.4,4.6,3.2c0.2,1.8-1.6,3.2-4,3.2
			C339.2,172.8,337.1,171.3,337,169.6z M319.8,169.6c-0.1-1.8,1.7-3.2,4-3.2c2.4,0,4.4,1.4,4.6,3.2c0.2,1.8-1.7,3.2-4,3.2
			C322,172.8,319.9,171.3,319.8,169.6z M302.6,169.5c-0.1-1.8,1.7-3.2,4.1-3.2c2.4,0,4.4,1.4,4.5,3.2c0.1,1.8-1.7,3.2-4.1,3.2
			C304.8,172.8,302.7,171.3,302.6,169.5z M285.5,169.5c-0.1-1.8,1.7-3.2,4.1-3.2c2.4,0,4.4,1.4,4.5,3.2c0.1,1.8-1.7,3.2-4.1,3.2
			C287.6,172.7,285.6,171.3,285.5,169.5z M268.3,169.5c-0.1-1.8,1.7-3.2,4.1-3.2c2.4,0,4.4,1.4,4.5,3.2c0.1,1.8-1.7,3.2-4.1,3.2
			C270.4,172.7,268.4,171.3,268.3,169.5z M251.2,169.5c-0.1-1.8,1.8-3.2,4.1-3.2c2.4,0,4.3,1.4,4.4,3.2c0.1,1.8-1.8,3.2-4.1,3.2
			C253.2,172.7,251.2,171.2,251.2,169.5z M234,169.4c-0.1-1.8,1.8-3.2,4.2-3.2c2.4,0,4.3,1.4,4.4,3.2c0.1,1.8-1.8,3.2-4.2,3.2
			C236.1,172.7,234.1,171.2,234,169.4z M216.9,169.4c0-1.8,1.8-3.2,4.2-3.2c2.4,0,4.3,1.4,4.4,3.2c0.1,1.8-1.8,3.2-4.2,3.2
			C218.9,172.6,217,171.2,216.9,169.4z M199.8,169.4c0-1.8,1.9-3.2,4.2-3.2c2.3,0,4.3,1.4,4.3,3.2c0,1.8-1.9,3.2-4.2,3.2
			S199.8,171.2,199.8,169.4z M182.7,169.4c0-1.8,1.9-3.2,4.2-3.2c2.3,0,4.3,1.4,4.3,3.2c0,1.8-1.9,3.2-4.2,3.2
			C184.7,172.6,182.7,171.2,182.7,169.4z M165.7,169.4c0-1.8,1.9-3.2,4.3-3.2c2.3,0,4.3,1.4,4.3,3.2c0,1.8-1.9,3.2-4.3,3.2
			C167.6,172.6,165.7,171.1,165.7,169.4z M148.6,169.3c0-1.8,1.9-3.2,4.3-3.2c2.3,0,4.2,1.4,4.2,3.2c0,1.8-1.9,3.2-4.3,3.2
			C150.5,172.6,148.6,171.1,148.6,169.3z M131.6,169.3c0-1.8,2-3.2,4.3-3.2c2.3,0,4.2,1.5,4.2,3.2c0,1.8-2,3.2-4.3,3.2
			C133.4,172.6,131.5,171.1,131.6,169.3z M114.6,169.3c0-1.8,2-3.2,4.3-3.2c2.3,0,4.2,1.4,4.2,3.2c0,1.8-2,3.2-4.3,3.2
			C116.4,172.6,114.5,171.1,114.6,169.3z M369.9,157c-0.2-1.7,1.6-3.1,3.9-3.1c2.3,0,4.4,1.4,4.6,3.1c0.2,1.7-1.6,3.1-3.9,3.1
			C372.2,160.1,370.1,158.7,369.9,157z M352.9,157c-0.2-1.7,1.6-3.1,4-3.1c2.3,0,4.4,1.4,4.6,3.1c0.2,1.7-1.6,3.1-3.9,3.1
			C355.1,160.1,353.1,158.7,352.9,157z M335.8,156.9c-0.1-1.7,1.6-3.1,4-3.1c2.3,0,4.4,1.4,4.5,3.1c0.2,1.7-1.6,3.1-4,3.1
			C338,160.1,336,158.7,335.8,156.9z M318.8,156.9c-0.1-1.7,1.7-3.1,4-3.1c2.3,0,4.4,1.4,4.5,3.1c0.1,1.7-1.6,3.1-4,3.1
			C320.9,160,318.9,158.6,318.8,156.9z M301.7,156.9c-0.1-1.7,1.7-3.1,4-3.1c2.3,0,4.4,1.4,4.5,3.1c0.1,1.7-1.7,3.1-4,3.1
			C303.9,160,301.8,158.6,301.7,156.9z M284.7,156.8c-0.1-1.7,1.7-3.1,4.1-3.1c2.3,0,4.3,1.4,4.5,3.1c0.1,1.7-1.7,3.1-4.1,3.1
			C286.8,160,284.8,158.6,284.7,156.8z M267.6,156.8c-0.1-1.7,1.7-3.1,4.1-3.1c2.3,0,4.3,1.4,4.4,3.1c0.1,1.7-1.7,3.1-4.1,3.1
			C269.7,159.9,267.7,158.5,267.6,156.8z M250.6,156.7c-0.1-1.7,1.8-3.1,4.1-3.1c2.3,0,4.3,1.4,4.4,3.1c0.1,1.7-1.8,3.2-4.1,3.1
			C252.7,159.9,250.7,158.5,250.6,156.7z M233.6,156.7c-0.1-1.7,1.8-3.1,4.1-3.1c2.3,0,4.3,1.4,4.4,3.2c0.1,1.7-1.8,3.2-4.1,3.2
			C235.6,159.9,233.6,158.4,233.6,156.7z M216.6,156.7c0-1.7,1.8-3.1,4.2-3.1c2.3,0,4.3,1.4,4.3,3.2c0,1.7-1.8,3.2-4.2,3.2
			C218.6,159.8,216.6,158.4,216.6,156.7z M199.6,156.6c0-1.7,1.9-3.1,4.2-3.1c2.3,0,4.3,1.4,4.3,3.2c0,1.7-1.8,3.2-4.2,3.2
			C201.5,159.8,199.6,158.4,199.6,156.6z M182.6,156.6c0-1.7,1.9-3.1,4.2-3.1c2.3,0,4.3,1.4,4.3,3.2c0,1.7-1.9,3.2-4.2,3.2
			C184.5,159.8,182.6,158.3,182.6,156.6z M165.7,156.5c0-1.7,1.9-3.2,4.2-3.1c2.3,0,4.2,1.4,4.2,3.2c0,1.7-1.9,3.2-4.2,3.2
			C167.6,159.7,165.6,158.3,165.7,156.5z M148.7,156.5c0-1.8,1.9-3.2,4.3-3.2c2.3,0,4.2,1.4,4.2,3.2c0,1.7-1.9,3.2-4.3,3.2
			C150.6,159.7,148.7,158.3,148.7,156.5z M131.8,156.5c0-1.8,2-3.2,4.3-3.2c2.3,0,4.2,1.4,4.2,3.2c0,1.7-1.9,3.2-4.3,3.2
			C133.6,159.7,131.8,158.2,131.8,156.5z M114.9,156.5c0-1.8,2-3.2,4.3-3.2c2.3,0,4.2,1.4,4.1,3.2c0,1.8-2,3.2-4.3,3.2
			C116.7,159.7,114.9,158.2,114.9,156.5z"/>
	</g>
	<g>
		<rect x="49.4" y="303.2" class="st41" width="76" height="27.3"/>
		<rect x="47" y="308.8" class="st41" width="80.9" height="17.4"/>
		<rect x="54.6" y="299.8" class="st41" width="65.7" height="33.7"/>
		<linearGradient id="SVGID_1_" gradientUnits="userSpaceOnUse" x1="87.4842" y1="305.1519" x2="87.4842" y2="330.4359">
			<stop  offset="0" style="stop-color:#121212"/>
			<stop  offset="1" style="stop-color:#FFFFFF"/>
		</linearGradient>
		<rect x="50.4" y="304.3" class="st42" width="74.3" height="25"/>
		<linearGradient id="SVGID_2_" gradientUnits="userSpaceOnUse" x1="87.4353" y1="328.477" x2="87.4353" y2="323.1946">
			<stop  offset="0" style="stop-color:#E6E6E5"/>
			<stop  offset="1" style="stop-color:#282929"/>
		</linearGradient>
		<polygon class="st43" points="52.4,322.9 52.4,328.8 122.5,328.8 122.5,322.9 		"/>
		<linearGradient id="SVGID_3_" gradientUnits="userSpaceOnUse" x1="87.4388" y1="321.5131" x2="87.4388" y2="308.3083">
			<stop  offset="0" style="stop-color:#E6E6E5"/>
			<stop  offset="1" style="stop-color:#282929"/>
		</linearGradient>
		<rect x="52.4" y="307.5" class="st44" width="70.1" height="14.7"/>
		<linearGradient id="SVGID_4_" gradientUnits="userSpaceOnUse" x1="63.3447" y1="307.0186" x2="63.3447" y2="320.7368">
			<stop  offset="0" style="stop-color:#382E13"/>
			<stop  offset="1" style="stop-color:#FBEEBB"/>
		</linearGradient>
		<rect x="60.7" y="307.2" class="st45" width="5.3" height="13.7"/>
		<linearGradient id="SVGID_5_" gradientUnits="userSpaceOnUse" x1="78.5486" y1="307.0534" x2="78.5486" y2="316.5442">
			<stop  offset="0" style="stop-color:#382E13"/>
			<stop  offset="1" style="stop-color:#FBECB2"/>
		</linearGradient>
		<rect x="75.5" y="307.1" class="st46" width="6.1" height="9.5"/>
		<linearGradient id="SVGID_6_" gradientUnits="userSpaceOnUse" x1="96.5107" y1="307.0466" x2="96.5107" y2="316.5381">
			<stop  offset="0" style="stop-color:#382E13"/>
			<stop  offset="1" style="stop-color:#FBECB2"/>
		</linearGradient>
		<rect x="93.4" y="307.1" class="st47" width="6.2" height="9.5"/>
		<linearGradient id="SVGID_7_" gradientUnits="userSpaceOnUse" x1="110.2289" y1="307.0186" x2="110.2289" y2="320.7368">
			<stop  offset="0" style="stop-color:#382E13"/>
			<stop  offset="1" style="stop-color:#FBECB2"/>
		</linearGradient>
		<rect x="107.6" y="307.2" class="st48" width="5.2" height="13.7"/>
		<linearGradient id="SVGID_8_" gradientUnits="userSpaceOnUse" x1="63.3097" y1="307.3751" x2="63.3097" y2="319.2095">
			<stop  offset="0" style="stop-color:#231D0B"/>
			<stop  offset="1" style="stop-color:#CBBF86"/>
		</linearGradient>
		<rect x="61.7" y="307.5" class="st49" width="3.3" height="11.9"/>
		<linearGradient id="SVGID_9_" gradientUnits="userSpaceOnUse" x1="78.5976" y1="307.4106" x2="78.5976" y2="315.3589">
			<stop  offset="0" style="stop-color:#231D0B"/>
			<stop  offset="1" style="stop-color:#CBBF86"/>
		</linearGradient>
		<rect x="77" y="307.5" class="st50" width="3.3" height="8"/>
		<linearGradient id="SVGID_10_" gradientUnits="userSpaceOnUse" x1="96.4269" y1="307.5013" x2="96.4269" y2="315.4497">
			<stop  offset="0" style="stop-color:#231D0B"/>
			<stop  offset="1" style="stop-color:#CBBF86"/>
		</linearGradient>
		<rect x="94.8" y="307.6" class="st51" width="3.3" height="8"/>
		<linearGradient id="SVGID_11_" gradientUnits="userSpaceOnUse" x1="110.1625" y1="307.2917" x2="110.1625" y2="318.8626">
			<stop  offset="0" style="stop-color:#231D0B"/>
			<stop  offset="1" style="stop-color:#CBBF86"/>
		</linearGradient>
		<rect x="108.5" y="307.4" class="st52" width="3.3" height="11.6"/>
		<rect x="52.3" y="322.2" class="st53" width="70.2" height="3.1"/>
	</g>
	<g>
		<rect x="157.4" y="303.2" class="st41" width="76" height="27.3"/>
		<rect x="155.1" y="308.8" class="st41" width="80.9" height="17.4"/>
		<rect x="162.7" y="299.8" class="st41" width="65.7" height="33.7"/>
		<linearGradient id="SVGID_12_" gradientUnits="userSpaceOnUse" x1="195.5368" y1="305.1519" x2="195.5368" y2="330.4359">
			<stop  offset="0" style="stop-color:#121212"/>
			<stop  offset="1" style="stop-color:#FFFFFF"/>
		</linearGradient>
		<rect x="158.4" y="304.3" class="st54" width="74.3" height="25"/>
		<linearGradient id="SVGID_13_" gradientUnits="userSpaceOnUse" x1="195.4879" y1="328.477" x2="195.4879" y2="323.1946">
			<stop  offset="0" style="stop-color:#E6E6E5"/>
			<stop  offset="1" style="stop-color:#282929"/>
		</linearGradient>
		<polygon class="st55" points="160.4,322.9 160.4,328.8 230.6,328.8 230.6,322.9 		"/>
		<linearGradient id="SVGID_14_" gradientUnits="userSpaceOnUse" x1="195.4879" y1="321.5131" x2="195.4879" y2="308.3083">
			<stop  offset="0" style="stop-color:#E6E6E5"/>
			<stop  offset="1" style="stop-color:#282929"/>
		</linearGradient>
		<polygon class="st56" points="160.4,307.5 160.4,322.3 230.6,322.3 230.6,307.5 		"/>
		<linearGradient id="SVGID_15_" gradientUnits="userSpaceOnUse" x1="171.3974" y1="307.0186" x2="171.3974" y2="320.7368">
			<stop  offset="0" style="stop-color:#382E13"/>
			<stop  offset="1" style="stop-color:#FBEEBB"/>
		</linearGradient>
		<rect x="168.7" y="307.2" class="st57" width="5.3" height="13.7"/>
		<linearGradient id="SVGID_16_" gradientUnits="userSpaceOnUse" x1="186.6013" y1="307.0534" x2="186.6013" y2="316.5442">
			<stop  offset="0" style="stop-color:#382E13"/>
			<stop  offset="1" style="stop-color:#FBECB2"/>
		</linearGradient>
		<rect x="183.6" y="307.1" class="st58" width="6.1" height="9.5"/>
		<linearGradient id="SVGID_17_" gradientUnits="userSpaceOnUse" x1="204.563" y1="307.0466" x2="204.563" y2="316.5381">
			<stop  offset="0" style="stop-color:#382E13"/>
			<stop  offset="1" style="stop-color:#FBECB2"/>
		</linearGradient>
		<rect x="201.5" y="307.1" class="st59" width="6.2" height="9.5"/>
		<linearGradient id="SVGID_18_" gradientUnits="userSpaceOnUse" x1="218.2778" y1="307.0186" x2="218.2778" y2="320.7368">
			<stop  offset="0" style="stop-color:#382E13"/>
			<stop  offset="1" style="stop-color:#FBECB2"/>
		</linearGradient>
		<rect x="215.7" y="307.2" class="st60" width="5.2" height="13.7"/>
		<linearGradient id="SVGID_19_" gradientUnits="userSpaceOnUse" x1="171.3622" y1="307.3751" x2="171.3622" y2="319.2095">
			<stop  offset="0" style="stop-color:#231D0B"/>
			<stop  offset="1" style="stop-color:#CBBF86"/>
		</linearGradient>
		<rect x="169.7" y="307.5" class="st61" width="3.3" height="11.9"/>
		<linearGradient id="SVGID_20_" gradientUnits="userSpaceOnUse" x1="186.6467" y1="307.4106" x2="186.6467" y2="315.3589">
			<stop  offset="0" style="stop-color:#231D0B"/>
			<stop  offset="1" style="stop-color:#CBBF86"/>
		</linearGradient>
		<rect x="185" y="307.5" class="st62" width="3.3" height="8"/>
		<linearGradient id="SVGID_21_" gradientUnits="userSpaceOnUse" x1="204.4759" y1="307.5013" x2="204.4759" y2="315.4497">
			<stop  offset="0" style="stop-color:#231D0B"/>
			<stop  offset="1" style="stop-color:#CBBF86"/>
		</linearGradient>
		<rect x="202.8" y="307.6" class="st63" width="3.3" height="8"/>
		<linearGradient id="SVGID_22_" gradientUnits="userSpaceOnUse" x1="218.2111" y1="307.2917" x2="218.2111" y2="318.8626">
			<stop  offset="0" style="stop-color:#231D0B"/>
			<stop  offset="1" style="stop-color:#CBBF86"/>
		</linearGradient>
		<rect x="216.6" y="307.4" class="st64" width="3.3" height="11.6"/>
		<rect x="160.3" y="322.2" class="st53" width="70.2" height="3.1"/>
	</g>
	<g>
		<rect x="264.3" y="302.6" class="st41" width="76" height="27.3"/>
		<rect x="262" y="308.2" class="st41" width="80.9" height="17.4"/>
		<rect x="269.6" y="299.2" class="st41" width="65.7" height="33.7"/>
		<linearGradient id="SVGID_23_" gradientUnits="userSpaceOnUse" x1="302.4073" y1="304.5646" x2="302.4073" y2="329.8486">
			<stop  offset="0" style="stop-color:#121212"/>
			<stop  offset="1" style="stop-color:#FFFFFF"/>
		</linearGradient>
		<rect x="265.3" y="303.7" class="st65" width="74.3" height="25"/>
		<linearGradient id="SVGID_24_" gradientUnits="userSpaceOnUse" x1="302.3585" y1="327.8822" x2="302.3585" y2="322.5999">
			<stop  offset="0" style="stop-color:#E6E6E5"/>
			<stop  offset="1" style="stop-color:#282929"/>
		</linearGradient>
		<polygon class="st66" points="267.3,322.3 267.3,328.2 337.4,328.2 337.4,322.3 		"/>
		<linearGradient id="SVGID_25_" gradientUnits="userSpaceOnUse" x1="302.3585" y1="320.9259" x2="302.3585" y2="307.7203">
			<stop  offset="0" style="stop-color:#E6E6E5"/>
			<stop  offset="1" style="stop-color:#282929"/>
		</linearGradient>
		<polygon class="st67" points="267.3,306.9 267.3,321.7 337.4,321.7 337.4,306.9 		"/>
		<linearGradient id="SVGID_26_" gradientUnits="userSpaceOnUse" x1="278.2679" y1="306.4246" x2="278.2679" y2="320.1294">
			<stop  offset="0" style="stop-color:#382E13"/>
			<stop  offset="1" style="stop-color:#FBEEBB"/>
		</linearGradient>
		<rect x="275.6" y="306.6" class="st68" width="5.3" height="13.7"/>
		<linearGradient id="SVGID_27_" gradientUnits="userSpaceOnUse" x1="293.4718" y1="306.4594" x2="293.4718" y2="315.9509">
			<stop  offset="0" style="stop-color:#382E13"/>
			<stop  offset="1" style="stop-color:#FBECB2"/>
		</linearGradient>
		<rect x="290.4" y="306.6" class="st69" width="6.1" height="9.5"/>
		<linearGradient id="SVGID_28_" gradientUnits="userSpaceOnUse" x1="311.4342" y1="306.4525" x2="311.4342" y2="315.9433">
			<stop  offset="0" style="stop-color:#382E13"/>
			<stop  offset="1" style="stop-color:#FBECB2"/>
		</linearGradient>
		<rect x="308.4" y="306.5" class="st70" width="6.2" height="9.5"/>
		<linearGradient id="SVGID_29_" gradientUnits="userSpaceOnUse" x1="325.1487" y1="306.4246" x2="325.1487" y2="320.1294">
			<stop  offset="0" style="stop-color:#382E13"/>
			<stop  offset="1" style="stop-color:#FBECB2"/>
		</linearGradient>
		<rect x="322.5" y="306.6" class="st71" width="5.2" height="13.7"/>
		<linearGradient id="SVGID_30_" gradientUnits="userSpaceOnUse" x1="278.2331" y1="306.7878" x2="278.2331" y2="318.6323">
			<stop  offset="0" style="stop-color:#231D0B"/>
			<stop  offset="1" style="stop-color:#CBBF86"/>
		</linearGradient>
		<rect x="276.6" y="306.9" class="st72" width="3.3" height="11.8"/>
		<linearGradient id="SVGID_31_" gradientUnits="userSpaceOnUse" x1="293.5172" y1="306.8226" x2="293.5172" y2="314.7703">
			<stop  offset="0" style="stop-color:#231D0B"/>
			<stop  offset="1" style="stop-color:#CBBF86"/>
		</linearGradient>
		<rect x="291.9" y="306.9" class="st73" width="3.3" height="8"/>
		<linearGradient id="SVGID_32_" gradientUnits="userSpaceOnUse" x1="311.3465" y1="306.9066" x2="311.3465" y2="314.8633">
			<stop  offset="0" style="stop-color:#231D0B"/>
			<stop  offset="1" style="stop-color:#CBBF86"/>
		</linearGradient>
		<rect x="309.7" y="307" class="st74" width="3.3" height="8"/>
		<linearGradient id="SVGID_33_" gradientUnits="userSpaceOnUse" x1="325.082" y1="306.7039" x2="325.082" y2="318.2827">
			<stop  offset="0" style="stop-color:#231D0B"/>
			<stop  offset="1" style="stop-color:#CBBF86"/>
		</linearGradient>
		<rect x="323.4" y="306.8" class="st75" width="3.3" height="11.6"/>
		<rect x="267.2" y="321.6" class="st53" width="70.2" height="3.1"/>
	</g>
	<g>
		<rect x="372.4" y="302.6" class="st41" width="76" height="27.3"/>
		<rect x="370" y="308.2" class="st41" width="80.9" height="17.4"/>
		<rect x="377.6" y="299.2" class="st41" width="65.7" height="33.7"/>
		<linearGradient id="SVGID_34_" gradientUnits="userSpaceOnUse" x1="410.4563" y1="304.5646" x2="410.4563" y2="329.8486">
			<stop  offset="0" style="stop-color:#121212"/>
			<stop  offset="1" style="stop-color:#FFFFFF"/>
		</linearGradient>
		<rect x="373.3" y="303.7" class="st76" width="74.2" height="25"/>
		<linearGradient id="SVGID_35_" gradientUnits="userSpaceOnUse" x1="410.4109" y1="327.8822" x2="410.4109" y2="322.5999">
			<stop  offset="0" style="stop-color:#E6E6E5"/>
			<stop  offset="1" style="stop-color:#282929"/>
		</linearGradient>
		<polygon class="st77" points="375.3,322.3 375.3,328.2 445.5,328.2 445.5,322.3 		"/>
		<linearGradient id="SVGID_36_" gradientUnits="userSpaceOnUse" x1="410.4109" y1="320.9259" x2="410.4109" y2="307.7203">
			<stop  offset="0" style="stop-color:#E6E6E5"/>
			<stop  offset="1" style="stop-color:#282929"/>
		</linearGradient>
		<polygon class="st78" points="375.3,306.9 375.3,321.7 445.5,321.7 445.5,306.9 		"/>
		<linearGradient id="SVGID_37_" gradientUnits="userSpaceOnUse" x1="386.3169" y1="306.4246" x2="386.3169" y2="320.1294">
			<stop  offset="0" style="stop-color:#382E13"/>
			<stop  offset="1" style="stop-color:#FBEEBB"/>
		</linearGradient>
		<rect x="383.6" y="306.6" class="st79" width="5.3" height="13.7"/>
		<linearGradient id="SVGID_38_" gradientUnits="userSpaceOnUse" x1="401.5208" y1="306.4594" x2="401.5208" y2="315.9509">
			<stop  offset="0" style="stop-color:#382E13"/>
			<stop  offset="1" style="stop-color:#FBECB2"/>
		</linearGradient>
		<rect x="398.5" y="306.6" class="st80" width="6.1" height="9.5"/>
		<linearGradient id="SVGID_39_" gradientUnits="userSpaceOnUse" x1="419.4863" y1="306.4525" x2="419.4863" y2="315.9433">
			<stop  offset="0" style="stop-color:#382E13"/>
			<stop  offset="1" style="stop-color:#FBECB2"/>
		</linearGradient>
		<rect x="416.4" y="306.5" class="st81" width="6.2" height="9.5"/>
		<linearGradient id="SVGID_40_" gradientUnits="userSpaceOnUse" x1="433.2011" y1="306.4246" x2="433.2011" y2="320.1294">
			<stop  offset="0" style="stop-color:#382E13"/>
			<stop  offset="1" style="stop-color:#FBECB2"/>
		</linearGradient>
		<rect x="430.6" y="306.6" class="st82" width="5.2" height="13.7"/>
		<linearGradient id="SVGID_41_" gradientUnits="userSpaceOnUse" x1="386.2817" y1="306.7878" x2="386.2817" y2="318.6323">
			<stop  offset="0" style="stop-color:#231D0B"/>
			<stop  offset="1" style="stop-color:#CBBF86"/>
		</linearGradient>
		<rect x="384.6" y="306.9" class="st83" width="3.3" height="11.8"/>
		<linearGradient id="SVGID_42_" gradientUnits="userSpaceOnUse" x1="401.5697" y1="306.8226" x2="401.5697" y2="314.7703">
			<stop  offset="0" style="stop-color:#231D0B"/>
			<stop  offset="1" style="stop-color:#CBBF86"/>
		</linearGradient>
		<rect x="399.9" y="306.9" class="st84" width="3.3" height="8"/>
		<linearGradient id="SVGID_43_" gradientUnits="userSpaceOnUse" x1="419.3989" y1="306.9066" x2="419.3989" y2="314.8633">
			<stop  offset="0" style="stop-color:#231D0B"/>
			<stop  offset="1" style="stop-color:#CBBF86"/>
		</linearGradient>
		<rect x="417.8" y="307" class="st85" width="3.3" height="8"/>
		<linearGradient id="SVGID_44_" gradientUnits="userSpaceOnUse" x1="433.1311" y1="306.7039" x2="433.1311" y2="318.2827">
			<stop  offset="0" style="stop-color:#231D0B"/>
			<stop  offset="1" style="stop-color:#CBBF86"/>
		</linearGradient>
		<rect x="431.5" y="306.8" class="st86" width="3.3" height="11.6"/>
		<rect x="375.2" y="321.6" class="st53" width="70.2" height="3.1"/>
	</g>
</g>
</svg>
