<?xml version="1.0" encoding="utf-8"?>
<!-- Generator: Adobe Illustrator 19.2.1, SVG Export Plug-In . SVG Version: 6.00 Build 0)  -->
<svg version="1.1" id="图层_1" xmlns="http://www.w3.org/2000/svg" xmlns:xlink="http://www.w3.org/1999/xlink" x="0px" y="0px"
	 viewBox="0 0 500 500" style="enable-background:new 0 0 500 500;" xml:space="preserve">
<style type="text/css">
	.st0{fill:url(#SVGID_1_);}
	.st1{fill:url(#SVGID_2_);}
	.st2{fill:url(#SVGID_3_);}
	.st3{fill:url(#SVGID_4_);}
	.st4{fill:url(#SVGID_5_);}
	.st5{fill:url(#SVGID_6_);}
	.st6{fill:url(#SVGID_7_);}
	.st7{fill:url(#SVGID_8_);}
	.st8{fill:url(#SVGID_9_);}
	.st9{fill:url(#SVGID_10_);}
	.st10{fill:#151F1E;}
	.st11{fill:#404746;}
	.st12{fill:url(#SVGID_11_);}
	.st13{fill:url(#SVGID_12_);}
	.st14{fill:url(#SVGID_13_);}
	.st15{fill:url(#SVGID_14_);}
	.st16{fill:url(#SVGID_15_);}
	.st17{fill:url(#SVGID_16_);}
	.st18{fill:url(#SVGID_17_);}
	.st19{fill:url(#SVGID_18_);}
	.st20{fill:url(#SVGID_19_);}
	.st21{fill:url(#SVGID_20_);}
	.st22{fill:url(#SVGID_21_);}
	.st23{fill:url(#SVGID_22_);}
	.st24{fill:url(#SVGID_23_);}
	.st25{fill:url(#SVGID_24_);}
	.st26{fill:url(#SVGID_25_);}
	.st27{fill:url(#SVGID_26_);}
	.st28{fill:url(#SVGID_27_);}
	.st29{fill:url(#SVGID_28_);}
	.st30{fill:url(#SVGID_29_);}
</style>
<g>
	<linearGradient id="SVGID_1_" gradientUnits="userSpaceOnUse" x1="105.6905" y1="251.3858" x2="226.9045" y2="251.3858">
		<stop  offset="0" style="stop-color:#A3A3A3"/>
		<stop  offset="5.848163e-002" style="stop-color:#909191"/>
		<stop  offset="0.192" style="stop-color:#6B6E6E"/>
		<stop  offset="0.3315" style="stop-color:#4B5251"/>
		<stop  offset="0.4766" style="stop-color:#333B3B"/>
		<stop  offset="0.6297" style="stop-color:#222B2B"/>
		<stop  offset="0.796" style="stop-color:#182221"/>
		<stop  offset="1" style="stop-color:#151F1E"/>
	</linearGradient>
	<polygon class="st0" points="219.6,496.5 107.1,436.5 105.7,57.7 226.9,6.3 	"/>
	<linearGradient id="SVGID_2_" gradientUnits="userSpaceOnUse" x1="362.9761" y1="190.3242" x2="362.9761" y2="179.476">
		<stop  offset="0" style="stop-color:#A3A3A3"/>
		<stop  offset="7.967496e-002" style="stop-color:#878989"/>
		<stop  offset="0.1984" style="stop-color:#646968"/>
		<stop  offset="0.3247" style="stop-color:#474E4D"/>
		<stop  offset="0.4589" style="stop-color:#313938"/>
		<stop  offset="0.6046" style="stop-color:#212A29"/>
		<stop  offset="0.7705" style="stop-color:#182221"/>
		<stop  offset="1" style="stop-color:#151F1E"/>
	</linearGradient>
	<ellipse class="st1" cx="363" cy="186.1" rx="4.6" ry="5"/>
	<linearGradient id="SVGID_3_" gradientUnits="userSpaceOnUse" x1="211.1629" y1="251.25" x2="393.5595" y2="251.25">
		<stop  offset="0" style="stop-color:#A3A3A3"/>
		<stop  offset="5.848163e-002" style="stop-color:#909191"/>
		<stop  offset="0.192" style="stop-color:#6B6E6E"/>
		<stop  offset="0.3315" style="stop-color:#4B5251"/>
		<stop  offset="0.4766" style="stop-color:#333B3B"/>
		<stop  offset="0.6297" style="stop-color:#222B2B"/>
		<stop  offset="0.796" style="stop-color:#182221"/>
		<stop  offset="1" style="stop-color:#151F1E"/>
	</linearGradient>
	<path class="st2" d="M211.2,485.5c0-67,3.6-375.4,3.6-459.4c0-20.8,13.6-20.3,13.6-20.3L382,15c0,0,5.1,0.8,6.7,2.4
		c3.2,3.2,3.7,8.7,3.7,8.5l1.2,456.1c0,0,0.9,11.2-8.6,10.3l-163.3,4.3C221.6,496.6,211.2,498.2,211.2,485.5z"/>
	<linearGradient id="SVGID_4_" gradientUnits="userSpaceOnUse" x1="344.9465" y1="171.2313" x2="344.9465" y2="134.6304">
		<stop  offset="0" style="stop-color:#A3A3A3"/>
		<stop  offset="7.967496e-002" style="stop-color:#878989"/>
		<stop  offset="0.1984" style="stop-color:#646968"/>
		<stop  offset="0.3247" style="stop-color:#474E4D"/>
		<stop  offset="0.4589" style="stop-color:#313938"/>
		<stop  offset="0.6046" style="stop-color:#212A29"/>
		<stop  offset="0.7705" style="stop-color:#182221"/>
		<stop  offset="1" style="stop-color:#151F1E"/>
	</linearGradient>
	<ellipse class="st3" cx="344.9" cy="157" rx="14" ry="17"/>
	<linearGradient id="SVGID_5_" gradientUnits="userSpaceOnUse" x1="331.717" y1="156.6963" x2="357.5535" y2="156.6963">
		<stop  offset="1.123600e-002" style="stop-color:#CCBDAD"/>
		<stop  offset="0.1011" style="stop-color:#CACECA"/>
		<stop  offset="0.2" style="stop-color:#B0A496"/>
		<stop  offset="0.2921" style="stop-color:#CACECA"/>
		<stop  offset="0.4" style="stop-color:#FFFFFF"/>
		<stop  offset="0.6" style="stop-color:#CACECA"/>
		<stop  offset="0.8" style="stop-color:#B0A496"/>
		<stop  offset="0.8876" style="stop-color:#CACECA"/>
		<stop  offset="1" style="stop-color:#CCBDAD"/>
	</linearGradient>
	<ellipse class="st4" cx="344.6" cy="156.7" rx="12.9" ry="14.5"/>
	<linearGradient id="SVGID_6_" gradientUnits="userSpaceOnUse" x1="344.945" y1="354.1471" x2="344.945" y2="331.2003">
		<stop  offset="0" style="stop-color:#A3A3A3"/>
		<stop  offset="7.967496e-002" style="stop-color:#878989"/>
		<stop  offset="0.1984" style="stop-color:#646968"/>
		<stop  offset="0.3247" style="stop-color:#474E4D"/>
		<stop  offset="0.4589" style="stop-color:#313938"/>
		<stop  offset="0.6046" style="stop-color:#212A29"/>
		<stop  offset="0.7705" style="stop-color:#182221"/>
		<stop  offset="1" style="stop-color:#151F1E"/>
	</linearGradient>
	<ellipse class="st5" cx="344.9" cy="345.2" rx="8.8" ry="10.7"/>
	<linearGradient id="SVGID_7_" gradientUnits="userSpaceOnUse" x1="336.6539" y1="345.0356" x2="352.85" y2="345.0356">
		<stop  offset="1.123600e-002" style="stop-color:#CCBDAD"/>
		<stop  offset="0.1011" style="stop-color:#CACECA"/>
		<stop  offset="0.2" style="stop-color:#B0A496"/>
		<stop  offset="0.2921" style="stop-color:#CACECA"/>
		<stop  offset="0.4" style="stop-color:#FFFFFF"/>
		<stop  offset="0.6" style="stop-color:#CACECA"/>
		<stop  offset="0.8" style="stop-color:#B0A496"/>
		<stop  offset="0.8876" style="stop-color:#CACECA"/>
		<stop  offset="1" style="stop-color:#CCBDAD"/>
	</linearGradient>
	<ellipse class="st6" cx="344.8" cy="345" rx="8.1" ry="9.1"/>
	<linearGradient id="SVGID_8_" gradientUnits="userSpaceOnUse" x1="362.973" y1="188.953" x2="362.973" y2="181.3361">
		<stop  offset="1.123600e-002" style="stop-color:#CCBDAD"/>
		<stop  offset="0.1011" style="stop-color:#CACECA"/>
		<stop  offset="0.2" style="stop-color:#B0A496"/>
		<stop  offset="0.2921" style="stop-color:#CACECA"/>
		<stop  offset="0.4" style="stop-color:#FFFFFF"/>
		<stop  offset="0.6" style="stop-color:#CACECA"/>
		<stop  offset="0.8" style="stop-color:#B0A496"/>
		<stop  offset="0.8876" style="stop-color:#CACECA"/>
		<stop  offset="1" style="stop-color:#CCBDAD"/>
	</linearGradient>
	<circle class="st7" cx="363" cy="186" r="3.5"/>
	<linearGradient id="SVGID_9_" gradientUnits="userSpaceOnUse" x1="362.9761" y1="326.262" x2="362.9761" y2="315.4138">
		<stop  offset="0" style="stop-color:#A3A3A3"/>
		<stop  offset="7.967496e-002" style="stop-color:#878989"/>
		<stop  offset="0.1984" style="stop-color:#646968"/>
		<stop  offset="0.3247" style="stop-color:#474E4D"/>
		<stop  offset="0.4589" style="stop-color:#313938"/>
		<stop  offset="0.6046" style="stop-color:#212A29"/>
		<stop  offset="0.7705" style="stop-color:#182221"/>
		<stop  offset="1" style="stop-color:#151F1E"/>
	</linearGradient>
	<ellipse class="st8" cx="363" cy="322" rx="4.6" ry="5"/>
	<linearGradient id="SVGID_10_" gradientUnits="userSpaceOnUse" x1="362.973" y1="324.8934" x2="362.973" y2="317.2701">
		<stop  offset="1.123600e-002" style="stop-color:#CCBDAD"/>
		<stop  offset="0.1011" style="stop-color:#CACECA"/>
		<stop  offset="0.2" style="stop-color:#B0A496"/>
		<stop  offset="0.2921" style="stop-color:#CACECA"/>
		<stop  offset="0.4" style="stop-color:#FFFFFF"/>
		<stop  offset="0.6" style="stop-color:#CACECA"/>
		<stop  offset="0.8" style="stop-color:#B0A496"/>
		<stop  offset="0.8876" style="stop-color:#CACECA"/>
		<stop  offset="1" style="stop-color:#CCBDAD"/>
	</linearGradient>
	<ellipse class="st9" cx="363" cy="321.9" rx="3.5" ry="3.5"/>
	<g>
		<path class="st10" d="M352.1,226.9c0,1.8-1.5,3.3-3.3,3.3h-2.7c-1.8,0-3.3-1.5-3.3-3.3v-12.4c0-1.8,1.5-3.3,3.3-3.3h2.7
			c1.8,0,3.3,1.5,3.3,3.3V226.9z"/>
		<rect x="343.4" y="211.2" class="st11" width="2.5" height="18"/>
		<linearGradient id="SVGID_11_" gradientUnits="userSpaceOnUse" x1="342.3691" y1="220.3601" x2="352.7473" y2="220.3601">
			<stop  offset="1.123600e-002" style="stop-color:#CCBDAD"/>
			<stop  offset="0.1011" style="stop-color:#CACECA"/>
			<stop  offset="0.2" style="stop-color:#B0A496"/>
			<stop  offset="0.2921" style="stop-color:#CACECA"/>
			<stop  offset="0.4" style="stop-color:#FFFFFF"/>
			<stop  offset="0.6" style="stop-color:#CACECA"/>
			<stop  offset="0.8" style="stop-color:#B0A496"/>
			<stop  offset="0.8876" style="stop-color:#CACECA"/>
			<stop  offset="1" style="stop-color:#CCBDAD"/>
		</linearGradient>
		<path class="st12" d="M349.1,209.8h-3c-2,0-3.7,1.7-3.7,3.7v13.8c0,2,1.6,3.7,3.7,3.7h3c2,0,3.7-1.6,3.7-3.7v-13.8
			C352.7,211.4,351.1,209.8,349.1,209.8z M351.6,226.3c0,1.8-1.3,3.2-2.9,3.2h-2.3c-1.6,0-2.9-1.4-2.9-3.2v-12
			c0-1.8,1.3-3.2,2.9-3.2h2.3c1.6,0,2.9,1.4,2.9,3.2V226.3z"/>
	</g>
	<g>
		<path class="st10" d="M352.1,252.2c0,1.8-1.5,3.3-3.3,3.3h-2.7c-1.8,0-3.3-1.5-3.3-3.3v-12.4c0-1.8,1.5-3.3,3.3-3.3h2.7
			c1.8,0,3.3,1.5,3.3,3.3V252.2z"/>
		<rect x="343.4" y="236.6" class="st11" width="2.5" height="18"/>
		<linearGradient id="SVGID_12_" gradientUnits="userSpaceOnUse" x1="342.3691" y1="245.7358" x2="352.7473" y2="245.7358">
			<stop  offset="1.123600e-002" style="stop-color:#CCBDAD"/>
			<stop  offset="0.1011" style="stop-color:#CACECA"/>
			<stop  offset="0.2" style="stop-color:#B0A496"/>
			<stop  offset="0.2921" style="stop-color:#CACECA"/>
			<stop  offset="0.4" style="stop-color:#FFFFFF"/>
			<stop  offset="0.6" style="stop-color:#CACECA"/>
			<stop  offset="0.8" style="stop-color:#B0A496"/>
			<stop  offset="0.8876" style="stop-color:#CACECA"/>
			<stop  offset="1" style="stop-color:#CCBDAD"/>
		</linearGradient>
		<path class="st13" d="M349.1,235.1h-3c-2,0-3.7,1.6-3.7,3.7v13.8c0,2,1.6,3.7,3.7,3.7h3c2,0,3.7-1.7,3.7-3.7v-13.8
			C352.7,236.8,351.1,235.1,349.1,235.1z M351.6,251.7c0,1.8-1.3,3.2-2.9,3.2h-2.3c-1.6,0-2.9-1.4-2.9-3.2v-12
			c0-1.8,1.3-3.2,2.9-3.2h2.3c1.6,0,2.9,1.4,2.9,3.2V251.7z"/>
	</g>
	<g>
		<radialGradient id="SVGID_13_" cx="345.4461" cy="270.4146" r="5.1502" gradientUnits="userSpaceOnUse">
			<stop  offset="0.7088" style="stop-color:#FFFFFF"/>
			<stop  offset="1" style="stop-color:#000000"/>
		</radialGradient>
		<circle class="st14" cx="345.4" cy="270.4" r="5.2"/>
		<radialGradient id="SVGID_14_" cx="345.4446" cy="270.4535" r="4.3829" gradientUnits="userSpaceOnUse">
			<stop  offset="0" style="stop-color:#000A00"/>
			<stop  offset="0.6374" style="stop-color:#017D06"/>
			<stop  offset="0.7642" style="stop-color:#359839"/>
			<stop  offset="0.9238" style="stop-color:#71B875"/>
			<stop  offset="1" style="stop-color:#89C48C"/>
		</radialGradient>
		<circle class="st15" cx="345.4" cy="270.5" r="4.4"/>
		<linearGradient id="SVGID_15_" gradientUnits="userSpaceOnUse" x1="343.7267" y1="269.0655" x2="347.341" y2="271.9878">
			<stop  offset="0" style="stop-color:#000A00"/>
			<stop  offset="0.2079" style="stop-color:#001D01"/>
			<stop  offset="0.6254" style="stop-color:#014D03"/>
			<stop  offset="1" style="stop-color:#017D06"/>
		</linearGradient>
		<circle class="st16" cx="345.4" cy="270.5" r="2.8"/>
	</g>
	<g>
		<radialGradient id="SVGID_16_" cx="345.6765" cy="291.2519" r="5.1518" gradientUnits="userSpaceOnUse">
			<stop  offset="0.7088" style="stop-color:#FFFFFF"/>
			<stop  offset="1" style="stop-color:#000000"/>
		</radialGradient>
		<ellipse class="st17" cx="345.7" cy="291.3" rx="5.2" ry="5.2"/>
		<radialGradient id="SVGID_17_" cx="345.6749" cy="291.1788" r="4.3829" gradientUnits="userSpaceOnUse">
			<stop  offset="0" style="stop-color:#520102"/>
			<stop  offset="1" style="stop-color:#FF0406"/>
		</radialGradient>
		<circle class="st18" cx="345.7" cy="291.2" r="4.4"/>
		<linearGradient id="SVGID_18_" gradientUnits="userSpaceOnUse" x1="347.4538" y1="292.7321" x2="343.7631" y2="289.5027">
			<stop  offset="0" style="stop-color:#BF0305"/>
			<stop  offset="1" style="stop-color:#4D0101"/>
		</linearGradient>
		<path class="st19" d="M348.5,291.2c0,1.6-1.3,2.8-2.8,2.8c-1.6,0-2.8-1.3-2.8-2.8c0-1.6,1.3-2.8,2.8-2.8
			C347.2,288.3,348.5,289.6,348.5,291.2z"/>
	</g>
	<g>
		<linearGradient id="SVGID_19_" gradientUnits="userSpaceOnUse" x1="305.8375" y1="188.1492" x2="285.7585" y2="168.6055">
			<stop  offset="0" style="stop-color:#A3A3A3"/>
			<stop  offset="5.848163e-002" style="stop-color:#909191"/>
			<stop  offset="0.192" style="stop-color:#6B6E6E"/>
			<stop  offset="0.3315" style="stop-color:#4B5251"/>
			<stop  offset="0.4766" style="stop-color:#333B3B"/>
			<stop  offset="0.6297" style="stop-color:#222B2B"/>
			<stop  offset="0.796" style="stop-color:#182221"/>
			<stop  offset="1" style="stop-color:#151F1E"/>
		</linearGradient>
		<path class="st20" d="M306.8,188.6c0,2.5-1.5,4.5-3.3,4.5H289c-1.8,0-3.3-2-3.3-4.5v-19.5c0-2.5,1.5-4.5,3.3-4.5h14.5
			c1.8,0,3.3,2,3.3,4.5V188.6z"/>
		<linearGradient id="SVGID_20_" gradientUnits="userSpaceOnUse" x1="287.2849" y1="170.0187" x2="316.2204" y2="198.4185">
			<stop  offset="0" style="stop-color:#A3A3A3"/>
			<stop  offset="5.848163e-002" style="stop-color:#909191"/>
			<stop  offset="0.192" style="stop-color:#6B6E6E"/>
			<stop  offset="0.3315" style="stop-color:#4B5251"/>
			<stop  offset="0.4766" style="stop-color:#333B3B"/>
			<stop  offset="0.6297" style="stop-color:#222B2B"/>
			<stop  offset="0.796" style="stop-color:#182221"/>
			<stop  offset="1" style="stop-color:#151F1E"/>
		</linearGradient>
		<path class="st21" d="M305,186.9c0,2-1.2,3.7-2.7,3.7h-12c-1.5,0-2.7-1.7-2.7-3.7v-16.1c0-2,1.2-3.7,2.7-3.7h12
			c1.5,0,2.7,1.6,2.7,3.7V186.9z"/>
	</g>
	<linearGradient id="SVGID_21_" gradientUnits="userSpaceOnUse" x1="230.2273" y1="246.2745" x2="288.6628" y2="246.2745">
		<stop  offset="0" style="stop-color:#151F1E"/>
		<stop  offset="0.478" style="stop-color:#7A7A7A"/>
		<stop  offset="0.5141" style="stop-color:#6A6C6C"/>
		<stop  offset="0.5974" style="stop-color:#4B5050"/>
		<stop  offset="0.6847" style="stop-color:#333A3A"/>
		<stop  offset="0.7769" style="stop-color:#222B2A"/>
		<stop  offset="0.8771" style="stop-color:#182221"/>
		<stop  offset="1" style="stop-color:#151F1E"/>
	</linearGradient>
	<path class="st22" d="M274.5,350.1c0,2-1.6,3.6-3.6,3.6h-30.3c-2,0-3.6-1.6-3.6-3.6V142.5c0-2,1.6-3.6,3.6-3.6h30.3
		c2,0,3.6,1.6,3.6,3.6V350.1z"/>
	<g>
		<path d="M240.6,354.4c-2.4,0-4.3-1.9-4.3-4.3l0,0V142.5c0-2.4,1.9-4.3,4.3-4.3l0,0h30.3c2.4,0,4.3,1.9,4.3,4.3l0,0v207.6h0
			c0,2.4-1.9,4.3-4.3,4.3l0,0L240.6,354.4L240.6,354.4z M237.7,142.5v207.6c0,1.6,1.3,2.9,2.9,2.9l0,0h30.3c1.6,0,2.9-1.3,2.9-2.9
			l0,0l0,0V142.5c0-1.6-1.3-2.9-2.9-2.9l0,0h-30.3C239,139.5,237.7,140.9,237.7,142.5L237.7,142.5z"/>
	</g>
	<linearGradient id="SVGID_22_" gradientUnits="userSpaceOnUse" x1="238.0703" y1="43.4418" x2="384.3084" y2="43.4418">
		<stop  offset="0" style="stop-color:#7A7A7A"/>
		<stop  offset="2.657621e-002" style="stop-color:#646666"/>
		<stop  offset="0.1014" style="stop-color:#2B3332"/>
		<stop  offset="0.1374" style="stop-color:#151F1E"/>
		<stop  offset="0.8901" style="stop-color:#151F1E"/>
		<stop  offset="1" style="stop-color:#7A7A7A"/>
	</linearGradient>
	<polygon class="st23" points="238.1,6.5 382,15 384.3,80.3 239.5,73.9 	"/>
	<g>
		<path class="st10" d="M238.8,75.3l-1.4-69l145.3,8.7l2.4,66.7L238.8,75.3L238.8,75.3z M240.1,74l143.5,6.4l-2.3-64L238.8,8
			L240.1,74L240.1,74z"/>
	</g>
	<linearGradient id="SVGID_23_" gradientUnits="userSpaceOnUse" x1="188.7297" y1="257.4979" x2="198.8765" y2="257.4979">
		<stop  offset="0" style="stop-color:#616161"/>
		<stop  offset="0.132" style="stop-color:#4B4E4E"/>
		<stop  offset="0.3194" style="stop-color:#333939"/>
		<stop  offset="0.5184" style="stop-color:#222B2A"/>
		<stop  offset="0.7347" style="stop-color:#182221"/>
		<stop  offset="1" style="stop-color:#151F1E"/>
	</linearGradient>
	<path class="st24" d="M201.6,442.5c0,2-1.6,3.7-3.7,3.7h-6.5c-2,0-3.7-1.6-3.7-3.7v-370c0-2,1.6-3.7,3.7-3.7h6.5
		c2,0,3.7,1.7,3.7,3.7V442.5z"/>
	<linearGradient id="SVGID_24_" gradientUnits="userSpaceOnUse" x1="158.5912" y1="257.1912" x2="168.738" y2="257.1912">
		<stop  offset="0" style="stop-color:#616161"/>
		<stop  offset="0.132" style="stop-color:#4B4E4E"/>
		<stop  offset="0.3194" style="stop-color:#333939"/>
		<stop  offset="0.5184" style="stop-color:#222B2A"/>
		<stop  offset="0.7347" style="stop-color:#182221"/>
		<stop  offset="1" style="stop-color:#151F1E"/>
	</linearGradient>
	<path class="st25" d="M171.5,433.4c0,1.9-1.7,3.5-3.7,3.5h-6.5c-2,0-3.7-1.6-3.7-3.5V80.9c0-1.9,1.6-3.5,3.7-3.5h6.5
		c2,0,3.7,1.6,3.7,3.5V433.4z"/>
	<linearGradient id="SVGID_25_" gradientUnits="userSpaceOnUse" x1="129.9873" y1="258.4224" x2="140.1341" y2="258.4224">
		<stop  offset="0" style="stop-color:#616161"/>
		<stop  offset="0.132" style="stop-color:#4B4E4E"/>
		<stop  offset="0.3194" style="stop-color:#333939"/>
		<stop  offset="0.5184" style="stop-color:#222B2A"/>
		<stop  offset="0.7347" style="stop-color:#182221"/>
		<stop  offset="1" style="stop-color:#151F1E"/>
	</linearGradient>
	<path class="st26" d="M142.9,422.6c0,1.8-1.6,3.3-3.7,3.3h-6.5c-2,0-3.7-1.5-3.7-3.3V94.2c0-1.8,1.6-3.3,3.7-3.3h6.5
		c2,0,3.7,1.5,3.7,3.3V422.6z"/>
	
		<linearGradient id="SVGID_26_" gradientUnits="userSpaceOnUse" x1="235.1394" y1="437.5527" x2="380.9224" y2="437.5527" gradientTransform="matrix(0.9996 -2.820000e-002 2.820000e-002 0.9996 -13.4185 40.0936)">
		<stop  offset="0" style="stop-color:#7A7A7A"/>
		<stop  offset="2.657621e-002" style="stop-color:#646666"/>
		<stop  offset="0.1014" style="stop-color:#2B3332"/>
		<stop  offset="0.1374" style="stop-color:#151F1E"/>
		<stop  offset="0.8901" style="stop-color:#151F1E"/>
		<stop  offset="1" style="stop-color:#7A7A7A"/>
	</linearGradient>
	<path class="st27" d="M379.7,468.1c0.1,2-1.5,3.7-3.6,3.8l-138.3,3.9c-2,0.1-3.7-1.5-3.8-3.6l-0.1-2.8c-0.1-2,1.5-3.7,3.6-3.8
		l138.3-3.9c2-0.1,3.7,1.5,3.8,3.6L379.7,468.1z"/>
	
		<linearGradient id="SVGID_27_" gradientUnits="userSpaceOnUse" x1="235.6337" y1="420.0315" x2="381.4168" y2="420.0315" gradientTransform="matrix(0.9996 -2.820000e-002 2.820000e-002 0.9996 -13.4185 40.0936)">
		<stop  offset="0" style="stop-color:#7A7A7A"/>
		<stop  offset="2.657621e-002" style="stop-color:#646666"/>
		<stop  offset="0.1014" style="stop-color:#2B3332"/>
		<stop  offset="0.1374" style="stop-color:#151F1E"/>
		<stop  offset="0.8901" style="stop-color:#151F1E"/>
		<stop  offset="1" style="stop-color:#7A7A7A"/>
	</linearGradient>
	<path class="st28" d="M379.7,450.6c0.1,2-1.5,3.7-3.6,3.8l-138.3,3.9c-2,0.1-3.7-1.5-3.8-3.6l-0.1-2.8c-0.1-2,1.5-3.7,3.6-3.8
		l138.3-3.9c2-0.1,3.7,1.5,3.8,3.6L379.7,450.6z"/>
	
		<linearGradient id="SVGID_28_" gradientUnits="userSpaceOnUse" x1="236.1021" y1="403.4293" x2="381.885" y2="403.4293" gradientTransform="matrix(0.9996 -2.820000e-002 2.820000e-002 0.9996 -13.4185 40.0936)">
		<stop  offset="0" style="stop-color:#7A7A7A"/>
		<stop  offset="2.657621e-002" style="stop-color:#646666"/>
		<stop  offset="0.1014" style="stop-color:#2B3332"/>
		<stop  offset="0.1374" style="stop-color:#151F1E"/>
		<stop  offset="0.8901" style="stop-color:#151F1E"/>
		<stop  offset="1" style="stop-color:#7A7A7A"/>
	</linearGradient>
	<path class="st29" d="M379.7,434c0.1,2-1.5,3.7-3.6,3.8l-138.3,3.9c-2,0.1-3.7-1.5-3.8-3.6l-0.1-2.8c-0.1-2,1.5-3.7,3.6-3.8
		l138.3-3.9c2-0.1,3.7,1.5,3.8,3.6L379.7,434z"/>
	
		<linearGradient id="SVGID_29_" gradientUnits="userSpaceOnUse" x1="236.5531" y1="387.4451" x2="382.3361" y2="387.4451" gradientTransform="matrix(0.9996 -2.820000e-002 2.820000e-002 0.9996 -13.4185 40.0936)">
		<stop  offset="0" style="stop-color:#7A7A7A"/>
		<stop  offset="2.657621e-002" style="stop-color:#646666"/>
		<stop  offset="0.1014" style="stop-color:#2B3332"/>
		<stop  offset="0.1374" style="stop-color:#151F1E"/>
		<stop  offset="0.8901" style="stop-color:#151F1E"/>
		<stop  offset="1" style="stop-color:#7A7A7A"/>
	</linearGradient>
	<path class="st30" d="M379.7,418c0.1,2-1.5,3.7-3.6,3.8l-138.3,3.9c-2,0.1-3.7-1.6-3.8-3.6l-0.1-2.8c-0.1-2,1.5-3.7,3.6-3.8
		l138.3-3.9c2-0.1,3.7,1.5,3.8,3.6L379.7,418z"/>
</g>
</svg>
